<?xml version="1.0" encoding="UTF-8"?>
<svg id="Capa_1" data-name="Capa 1" xmlns="http://www.w3.org/2000/svg" viewBox="0 0 386.04 119.65">
  <defs>
    <style>
      .cls-1 {
        fill: #567d40;
      }

      .cls-2 {
        fill: #4a494a;
      }

      .cls-3 {
        fill: #464545;
      }

      .cls-4 {
        fill: #4f8437;
      }
    </style>
  </defs>
  <g>
    <path class="cls-3" d="M168.35,60.06c0-7.78,3.46-12.09,9.75-12.09s9.75,4.21,9.75,12.09-3.45,12.03-9.75,12.03-9.75-4.15-9.75-12.03ZM183.35,60.06c0-5.64-1.56-7.96-5.25-7.96s-5.25,2.43-5.25,7.96,1.57,7.84,5.25,7.84,5.25-2.38,5.25-7.84Z"/>
    <path class="cls-3" d="M199.06,72.09c-2.67,0-5.35-.62-7.37-1.71v-22.55c1.38-.38,2.97-.38,4.35,0v8c.86-1.12,2.52-2.1,4.71-2.1,4.17,0,6.64,3.17,6.64,8.8,0,6.07-3.04,9.55-8.33,9.55h0ZM203,62.81c0-3.46-1.04-5-3.33-5-2.08,0-3.66,1.66-3.66,4.33v5.3c.82.39,1.95.59,3.16.59,2.64,0,3.83-1.61,3.83-5.22Z"/>
    <path class="cls-3" d="M210.83,56.1c2.41-1.51,5.01-2.37,7.27-2.37,1.34,0,2.58.26,3.52.71.08,1.51-.34,3.01-1.14,4.12-.61-.38-1.36-.59-2.08-.59-1.09,0-2.21.39-3.22,1.07v12.56c-1.38.38-2.97.38-4.35,0v-15.51Z"/>
    <path class="cls-3" d="M222.26,66.29c0-3.53,2.53-5.55,6.95-5.55,1.59,0,3.05.29,3.95.79l.02-.97c.04-1.93-1.19-2.89-3.64-2.89-1.52,0-3.1.38-4.35,1.05-.86-.83-1.32-2.06-1.28-3.37,1.65-1.01,3.81-1.59,5.92-1.59,4.83,0,7.5,2.23,7.5,7.9v8.74c-2.13,1.08-4.94,1.71-7.7,1.71-4.68,0-7.36-2.12-7.36-5.81ZM233.14,67.98v-3.18c-.82-.45-2.03-.71-3.26-.71-2.35,0-3.42.69-3.42,2.22s1.12,2.17,3.46,2.17c1.26,0,2.45-.18,3.21-.49Z"/>
    <path class="cls-4" d="M241.57,49.57c2.02-1.01,4.67-1.6,7.19-1.6,5.16,0,8.11,2.91,8.11,7.98s-2.79,8.03-7.67,8.03c-1.17,0-2.41-.18-3.2-.46v8.08c-1.41.38-3.02.38-4.44,0v-22.03ZM252.59,55.76c0-2.62-1.26-3.99-3.66-3.99-.97,0-2.05.18-2.97.52v7.36c.68.22,1.69.36,2.57.36,2.72,0,4.06-1.41,4.06-4.25Z"/>
    <path class="cls-4" d="M259.89,67.42v-19.58c1.38-.38,2.97-.38,4.35,0v18.53c0,1.34.39,1.9,1.34,1.9.6,0,1.2-.27,1.73-.71.72.64,1.08,1.69,1,2.89-.96,1.04-2.44,1.64-4.06,1.64-2.92,0-4.36-1.55-4.36-4.67Z"/>
    <path class="cls-4" d="M269.66,66.29c0-3.53,2.53-5.55,6.95-5.55,1.59,0,3.05.29,3.95.79l.02-.97c.04-1.93-1.19-2.89-3.64-2.89-1.52,0-3.1.38-4.35,1.05-.86-.83-1.32-2.06-1.28-3.37,1.65-1.01,3.81-1.59,5.92-1.59,4.83,0,7.5,2.23,7.5,7.9v8.74c-2.13,1.08-4.94,1.71-7.7,1.71-4.68,0-7.36-2.12-7.36-5.81ZM280.53,67.98v-3.18c-.82-.45-2.03-.71-3.26-.71-2.35,0-3.42.69-3.42,2.22s1.12,2.17,3.46,2.17c1.26,0,2.45-.18,3.21-.49Z"/>
    <path class="cls-4" d="M288.73,56.1c2.75-1.51,5.92-2.37,8.86-2.37,4.1,0,6.33,2.13,6.33,6.07v11.88c-1.38.38-2.97.38-4.35,0v-11.07c0-1.95-.86-2.8-2.7-2.8-1.25,0-2.63.29-3.79.89v12.98c-1.38.38-2.97.38-4.35,0v-15.58Z"/>
  </g>
  <g>
    <path class="cls-2" d="M85.04,19.47v6.91c0,.55,1.41,2.47,1.92,2.9,2.1,1.79,5.68,1.49,7.53-.52.26-.29,1.16-1.81,1.16-2.06v-7.23h28.29v5.95c0,.11.47,1.75.57,2,1.55,3.66,7.15,4.18,9.34.84.18-.28,1.02-2.06,1.02-2.2v-6.59c5.87-.32,12.36-.36,13.79,6.62l.04,52.38c-.37,2.81-3.55,1.57-3.55.3v-41.62h-70.39v62.2c0,1.46,2.75,4.03,4.37,3.99l50.12.02c2.45.07,2.93,3.22.33,3.56l-51.12-.02c-3.39-.52-5.91-3.01-7.01-6.17-.51-24.84-.07-49.79-.22-74.67.1-2.95,4.12-6.59,6.91-6.59h6.91Z"/>
    <path class="cls-1" d="M81.98,56.11c-2.08-.36-1.88-7.52-.67-8.38,1.25-.89,5.68.22,6.63-.44.63-.44.17-2.88.3-3.72h2.57v3.86s7.55,0,7.55,0c1.46,0,1.34,6.23.88,7.31-.83,1.95-3.56,1.26-5.22,1.37.07.44-.11,2.15,0,2.25.06.06,1.13-.02,1.62.14,1.95.66,1.59,3.37,1.59,5h25.23c.62,0,1.09,1.47,1.14,2.07.12,1.23.39,6.61-1.14,6.61h-11.25s-.48.45-.48.48v6.91h28.77c.65,0,1.4,1.76,1.47,2.39.13,1.33.44,6.29-1.47,6.29h-4.66v2.25h4.66c.42,0,1.47,1.1,1.62,1.59.26.82-.12,3.87.63,3.87h9.64c.24,0,.73.78.8,1.13.15.79.11,6.04-.15,6.58-.15.32-.59.54-.89.72l-16.08.18c-.57-.27-1.07-.75-1.18-1.39-.15-.79-.14-5.68.06-6.35.55-1.89,4.81,1.05,5.1-1.99.31-3.22-3.67-.88-5.93-2.46-1.68-1.17.01-3.83-1.65-4.14l-28.86-.07c-1.82-.28-1.37-7.17-.9-7.83.11-.15,1.07-.78,1.15-.78h5.3v-7.39h-16.55c-1.61,0-1.32-6.54-.98-7.74.39-1.41,2.84-.83,4.04-.93v-2.39c-3.16-.31-3.5-2.14-3.22-5-2.85-.35-6.77.47-9.48,0Z"/>
    <path class="cls-2" d="M131.86,13.78c.39.44.68,1.38.75,1.98.2,1.78.27,9-.08,10.55-.7,3.12-5.81,2.68-6.34-.27-.26-1.41-.26-9.49,0-10.9.45-2.45,4.03-3.22,5.67-1.36Z"/>
    <path class="cls-2" d="M89.78,12.78c1.89-.33,3.72,1.11,3.94,2.99.22,1.84.26,8.53-.08,10.22-.66,3.3-5.92,3.48-6.36-.24-.21-1.78-.27-9.31.08-10.87.22-.98,1.48-1.93,2.42-2.1Z"/>
  </g>
</svg>