<?xml version="1.0" encoding="UTF-8"?>
<svg id="Capa_1" data-name="Capa 1" xmlns="http://www.w3.org/2000/svg" viewBox="0 0 386.04 119.65">
  <defs>
    <style>
      .cls-1 {
        fill: #464545;
      }

      .cls-2 {
        fill: #4f8437;
      }
    </style>
  </defs>
  <g>
    <path class="cls-1" d="M141.56,61.02h-4.55v-19.8l-33.36-20.81-1.54-.59-34.66,21.81v38.12h-4.28v-40.8c12.99-8.26,25.98-16.56,39.19-24.46l39.19,24.46v22.07Z"/>
    <path class="cls-2" d="M74.94,86.43c.16.03.36-.02.54,0l27.21,17.35c.58.09,1.03-.3,1.49-.55,1.48-.78,9.36-6.37,9.95-6.37h8.43l-19.86,12.54-39.52-24.44c-.58-.7-.15-2.16-.27-3.07h4.68c.46,0,5.98,4.29,7.36,4.55Z"/>
    <path class="cls-1" d="M95.81,32.13v54.31h-3.21v-27.42c-2.01-1.67-4.46-2.88-6.37-4.6l-.05-14.66.39-.68c2.67-1.84,5.07-4.05,7.66-5.98.47-.35,1-.92,1.58-.96Z"/>
    <path class="cls-1" d="M74.94,86.43l.04-23.1,9.32-8.07.8-.4v31.57c-3.12-.2-6.55.27-9.63,0-.18-.02-.38.03-.54,0Z"/>
    <path class="cls-2" d="M145.03,88.04c-.06.39.09,2.06,0,2.14-.13.13-1.01-.21-1.08.15-.05.29-.09,2.44,0,2.52.1.09.98-.1,1.07,0,.09.08-.07,1.75,0,2.14h-41.2c.42-.42.19-2.07.27-2.14.09-.09.98.1,1.07,0,.1-.09.1-2.59,0-2.68-.1-.09-.98.1-1.07,0-.09-.08.07-1.75,0-2.14h40.93ZM121.76,90.18h-12.84v2.68h12.84v-2.68ZM139.95,90.18h-12.57v2.68h12.57v-2.68Z"/>
    <path class="cls-2" d="M135.4,61.82v12.04h-16.32v-12.04h16.32ZM127.77,65.57c-.46-.38-1.1,1.31-1.6,1.47,1.85.62-.38,3.28,1.87,2.81.21-.98-.64-3.03.8-2.68-.39-.22-1-1.54-1.08-1.6Z"/>
    <path class="cls-2" d="M126.77,74.42v12.04h-16.32v-12.04h16.32ZM119.13,78.16c-.46-.38-1.1,1.31-1.59,1.47,1.85.62-.38,3.28,1.87,2.81.21-.98-.64-3.03.8-2.68-.39-.22-1-1.54-1.08-1.6Z"/>
    <path class="cls-2" d="M143.96,74.42v12.04h-16.32v-12.04h16.32ZM136.32,78.16c-.46-.38-1.1,1.31-1.59,1.47,1.85.62-.38,3.28,1.87,2.81.21-.98-.64-3.03.8-2.68-.39-.22-1-1.54-1.08-1.6Z"/>
    <path class="cls-1" d="M97.68,65.83l9.63,6.02c.51,1.07.68,2.39-.8,2v12.57h-8.83v-20.6Z"/>
    <path class="cls-1" d="M117.48,71.72h-6.15v-22.47c2.19.94,4.17,2.53,6.15,3.88v18.59Z"/>
    <polygon class="cls-1" points="109.18 60.48 97.68 53.13 97.68 42.83 109.18 50.99 109.18 60.48"/>
    <polygon class="cls-1" points="109.18 61.82 109.18 71.72 97.68 64.5 97.68 54.6 109.18 61.82"/>
  </g>
  <g>
    <path class="cls-1" d="M161.28,59.19c0-7.78,3.46-12.09,9.75-12.09s9.75,4.21,9.75,12.09-3.45,12.03-9.75,12.03-9.75-4.15-9.75-12.03ZM176.28,59.19c0-5.64-1.56-7.96-5.25-7.96s-5.25,2.43-5.25,7.96,1.57,7.84,5.25,7.84,5.25-2.38,5.25-7.84Z"/>
    <path class="cls-1" d="M191.99,71.22c-2.66,0-5.35-.62-7.37-1.71v-22.55c1.38-.38,2.97-.38,4.35,0v8c.86-1.12,2.52-2.1,4.71-2.1,4.17,0,6.64,3.17,6.64,8.8,0,6.07-3.04,9.55-8.33,9.55h0ZM195.92,61.93c0-3.46-1.04-5-3.33-5-2.08,0-3.66,1.66-3.66,4.34v5.3c.82.39,1.95.59,3.16.59,2.64,0,3.83-1.61,3.83-5.22Z"/>
    <path class="cls-1" d="M203.75,55.22c2.41-1.51,5.01-2.37,7.27-2.37,1.34,0,2.58.26,3.52.71.08,1.51-.34,3.01-1.14,4.12-.61-.38-1.36-.59-2.08-.59-1.09,0-2.21.39-3.22,1.07v12.56c-1.38.38-2.97.38-4.35,0v-15.51Z"/>
    <path class="cls-1" d="M215.19,65.41c0-3.53,2.53-5.55,6.95-5.55,1.59,0,3.05.29,3.95.79l.02-.97c.04-1.93-1.19-2.89-3.64-2.89-1.52,0-3.1.38-4.35,1.05-.86-.83-1.32-2.06-1.28-3.37,1.65-1.01,3.81-1.59,5.92-1.59,4.83,0,7.5,2.23,7.5,7.9v8.74c-2.13,1.09-4.94,1.71-7.7,1.71-4.68,0-7.36-2.12-7.36-5.81ZM226.06,67.1v-3.18c-.82-.45-2.03-.71-3.26-.71-2.35,0-3.42.69-3.42,2.22s1.12,2.16,3.46,2.16c1.26,0,2.45-.18,3.21-.49Z"/>
    <path class="cls-2" d="M233.36,69.29c-.13-1.44.29-2.8,1.16-3.73,2.14.98,4.45,1.47,6.44,1.47,2.82,0,4.47-.99,4.47-2.8,0-4.6-11.07-2.24-11.07-10.51,0-3.96,2.98-6.62,7.51-6.62,2.87,0,5.44,1.16,7.05,3.19-.35,1.36-1.21,2.4-2.38,2.87-1.06-1.22-2.6-1.92-4.22-1.92-2.18,0-3.43.86-3.43,2.43,0,4.23,11.03,2.21,11.03,10.22,0,4.61-3.14,7.34-8.63,7.34-2.92,0-5.82-.73-7.93-1.93Z"/>
    <path class="cls-2" d="M268.52,69.51c-2.54,1.12-5.27,1.71-8.11,1.71-4.73,0-7.08-2.01-7.08-6.07v-11.79c1.38-.37,2.95-.37,4.33,0v10.95c0,1.89.99,2.82,2.99,2.82,1.22,0,2.49-.21,3.5-.59v-13.19c1.39-.37,2.98-.37,4.37,0v16.15Z"/>
    <path class="cls-2" d="M288.39,61.82c0,5.98-2.59,9.4-7.11,9.4-1.61,0-3.15-.46-4.24-1.39v7.09c-1.39.38-2.97.38-4.35,0v-21.68c2.13-1.51,4.96-2.37,7.78-2.37,5.19,0,7.92,3.09,7.92,8.95ZM277.01,57.66v7.98c.86.94,2.09,1.48,3.39,1.48,2.48,0,3.6-1.63,3.6-5.28,0-3.37-1.19-4.92-3.82-4.92-1.17,0-2.33.26-3.18.75Z"/>
    <path class="cls-2" d="M307.62,61.82c0,5.98-2.59,9.4-7.11,9.4-1.61,0-3.15-.46-4.24-1.39v7.09c-1.39.38-2.96.38-4.35,0v-21.68c2.13-1.51,4.96-2.37,7.78-2.37,5.19,0,7.92,3.09,7.92,8.95ZM296.24,57.66v7.98c.86.94,2.09,1.48,3.39,1.48,2.48,0,3.6-1.63,3.6-5.28,0-3.37-1.19-4.92-3.82-4.92-1.17,0-2.33.26-3.18.75Z"/>
    <path class="cls-2" d="M311.22,66.55v-19.58c1.38-.38,2.97-.38,4.35,0v18.53c0,1.34.39,1.9,1.34,1.9.6,0,1.2-.27,1.73-.7.72.64,1.08,1.69,1,2.89-.96,1.04-2.44,1.64-4.06,1.64-2.92,0-4.36-1.55-4.36-4.67Z"/>
    <path class="cls-2" d="M326.48,70.42v-.03c-.55-.02-1.06-.08-1.41-.18-2.5-5.44-4.4-11.03-5.73-16.84,1.5-.39,3.21-.39,4.71,0,.95,4.5,2.26,8.95,3.96,13.41h.03c1.72-4.45,3.08-8.92,4.16-13.41,1.42-.39,3.06-.39,4.48,0-2.09,8.31-4.98,16.09-8.85,23.56-1.52.39-3.34.39-4.87,0,1.39-2.19,2.57-4.35,3.52-6.5Z"/>
  </g>
</svg>