<?xml version="1.0" encoding="UTF-8"?>
<svg id="Capa_1" data-name="Capa 1" xmlns="http://www.w3.org/2000/svg" viewBox="0 0 386.04 119.65">
  <defs>
    <style>
      .cls-1 {
        fill: #3c3d40;
      }

      .cls-2 {
        fill: #464545;
      }

      .cls-3 {
        fill: #428334;
      }

      .cls-4 {
        fill: #4f8437;
      }
    </style>
  </defs>
  <g>
    <path class="cls-2" d="M161.61,60.06c0-7.78,3.46-12.09,9.75-12.09s9.75,4.21,9.75,12.09-3.45,12.03-9.75,12.03-9.75-4.15-9.75-12.03ZM176.6,60.06c0-5.64-1.56-7.96-5.25-7.96s-5.25,2.43-5.25,7.96,1.57,7.84,5.25,7.84,5.25-2.38,5.25-7.84Z"/>
    <path class="cls-2" d="M192.32,72.09c-2.66,0-5.35-.62-7.37-1.71v-22.55c1.38-.38,2.97-.38,4.35,0v8c.86-1.12,2.52-2.1,4.71-2.1,4.17,0,6.64,3.17,6.64,8.8,0,6.07-3.04,9.55-8.33,9.55h0ZM196.25,62.81c0-3.46-1.04-5-3.33-5-2.08,0-3.66,1.66-3.66,4.34v5.3c.82.39,1.95.59,3.16.59,2.64,0,3.83-1.61,3.83-5.22Z"/>
    <path class="cls-2" d="M204.08,56.1c2.41-1.51,5.01-2.37,7.27-2.37,1.34,0,2.58.26,3.52.71.08,1.51-.34,3.01-1.14,4.12-.61-.38-1.36-.59-2.08-.59-1.09,0-2.21.39-3.22,1.07v12.56c-1.38.38-2.97.38-4.35,0v-15.51Z"/>
    <path class="cls-2" d="M215.52,66.29c0-3.53,2.53-5.55,6.95-5.55,1.59,0,3.05.29,3.95.79l.02-.97c.04-1.93-1.19-2.89-3.64-2.89-1.52,0-3.1.38-4.35,1.05-.86-.83-1.32-2.06-1.28-3.37,1.65-1.01,3.81-1.59,5.92-1.59,4.83,0,7.5,2.23,7.5,7.9v8.74c-2.13,1.08-4.94,1.71-7.7,1.71-4.68,0-7.36-2.12-7.36-5.81ZM226.39,67.98v-3.18c-.82-.45-2.03-.71-3.26-.71-2.35,0-3.42.69-3.42,2.22s1.12,2.16,3.46,2.16c1.26,0,2.45-.18,3.21-.49Z"/>
    <path class="cls-4" d="M248.95,71.75h-14.12v-23.3c1.43-.38,3.06-.38,4.49,0v18.86h9.64c.39,1.41.39,3.02,0,4.43Z"/>
    <path class="cls-4" d="M265.79,70.22c-1.73,1.16-4.04,1.87-6.5,1.87-5.48,0-8.51-3.27-8.51-9.1s3.05-9.25,8.38-9.25c4.44,0,7.02,2.34,7.08,6.42.02,1.33-.17,2.87-.54,4.16-3.31.68-7.09.78-10.42.22.47,2.44,1.99,3.55,4.76,3.55,1.6,0,3.22-.44,4.44-1.21.85.79,1.33,2.01,1.31,3.34ZM255.21,61.15c2.43.35,4.83.37,6.79.03.05-.32.08-.72.08-1.08,0-1.61-1.07-2.47-3.1-2.47-2.24,0-3.44,1.1-3.77,3.52Z"/>
    <path class="cls-4" d="M269.79,56.1c2.75-1.51,5.92-2.37,8.86-2.37,4.1,0,6.33,2.13,6.33,6.07v11.88c-1.38.38-2.97.38-4.35,0v-11.07c0-1.95-.86-2.8-2.7-2.8-1.25,0-2.63.29-3.79.89v12.98c-1.38.38-2.97.38-4.35,0v-15.58Z"/>
    <path class="cls-4" d="M287.92,70.73c-.15-1.37.24-2.69,1.07-3.61,1.49.61,3.23.97,4.76.97,1.87,0,2.98-.6,2.98-1.58,0-2.46-8.09-1.83-8.09-7.56,0-3.19,2.54-5.21,6.23-5.21,2.41,0,4.55.91,5.76,2.49-.26,1.26-1.12,2.23-2.36,2.65-.72-.82-1.88-1.29-3.11-1.29-1.38,0-2.2.5-2.2,1.32,0,2.46,8.21,1.45,8.21,7.7,0,3.39-2.71,5.5-6.87,5.5-2.26,0-4.59-.5-6.38-1.37Z"/>
  </g>
  <g>
    <path class="cls-3" d="M92.49,10.57l45.52-.02c3.83.04,7.09,3.05,7.33,6.89.11,1.7,0,3.66,0,5.39-.13,22.68.03,45.4-.09,68.09-.23,3.85.32,8.09,0,11.89-.28,3.34-3.63,6.33-6.98,6.29h-46.41c-3.74-.17-6.74-3.29-6.99-6.98V17.79c.35-4,3.58-7.12,7.62-7.22ZM92.23,13.44c-2.37.19-4.38,2.04-4.58,4.44v72.62c.17,2.44,2.08,4.21,4.47,4.47h45.98c2.31-.19,4.21-1.98,4.47-4.29V17.61c-.18-2.43-2.31-4.03-4.64-4.21l-45.69.03ZM108.53,98.88c-2.55.74-2.3,4.04.34,4.39h12.65c2.66-.31,2.85-3.72.35-4.41h-13.33Z"/>
    <path class="cls-1" d="M108.21,39.17v37.56h-1.65v-19.43c-1.47-.81-2.94-1.63-4.32-2.57v-11.26s.07-.17.07-.17l5.61-4.02.29-.1Z"/>
    <polygon class="cls-1" points="102.14 76.74 95.54 76.74 95.54 60.86 102.14 56.09 102.14 76.74"/>
    <polygon class="cls-1" points="115.84 64.07 115.84 68.76 114.11 68.76 114.11 76.74 109.25 76.74 109.25 60.34 115.84 64.07"/>
    <path class="cls-1" d="M115.84,56.78v5.99c-2.27-1.12-4.41-2.49-6.59-3.77v-5.94c.26.02.52.21.75.33,1.97,1.09,3.84,2.37,5.84,3.4Z"/>
    <path class="cls-1" d="M115.84,49.67v5.9l-6.59-3.86v-5.77c2.25,1.13,4.36,2.55,6.59,3.73Z"/>
    <path class="cls-1" d="M115.84,48.37c-2.27-1.11-4.4-2.51-6.59-3.77v-5.77c.39.11.82.38,1.19.59,1.82,1.04,3.61,2.17,5.41,3.27v5.68Z"/>
    <polygon class="cls-1" points="120.61 57.57 120.61 61.73 119.66 61.73 119.66 68.76 116.97 68.76 116.97 55.66 120.61 57.57"/>
    <path class="cls-3" d="M135.36,26.86h-8.46c-.09,0-.5-.38-.55-.49-.31-.6.07-1.34.73-1.41,2.92.19,6.23-.28,9.1-.01.63.06.96.38,1.08,1v9.28c-.18,1.11-1.91.77-1.91,0v-8.37Z"/>
    <path class="cls-3" d="M94.85,26.86v8.46c0,.71-1.67.97-1.82,0l.03-9.76c.15-.33.5-.56.87-.6h9.28c.98-.02.97,1.91.18,1.91h-8.54Z"/>
    <path class="cls-4" d="M136.32,77.3c-.04.22.05,1.14,0,1.18-.07.07-.56-.12-.6.08-.03.16-.05,1.35,0,1.39.05.05.54-.05.59,0,.05.05-.04.97,0,1.18h-22.75c.23-.23.1-1.14.15-1.18.05-.05.54.05.59,0,.05-.05.05-1.43,0-1.48-.05-.05-.54.05-.59,0-.05-.05.04-.97,0-1.18h22.6ZM123.47,78.48h-7.09v1.48h7.09v-1.48ZM133.51,78.48h-6.94v1.48h6.94v-1.48Z"/>
    <path class="cls-4" d="M129.68,62.21v6.65h-9.01v-6.65h9.01ZM124.36,64.28c-.25-.21-.61.72-.88.81,1.02.34-.21,1.81,1.03,1.55.12-.54-.35-1.67.44-1.48-.21-.12-.55-.85-.59-.88ZM126.43,66.64c.02-.36-.05-.74,0-1.1.09-.61.59-.52-.37-1.26-.17.23-.67.52-.67.81,0,.09.27.05.3.17.07.27-.07,1.31,0,1.38h.74ZM126.87,66.79c-.12-.12-2.93,0-3.4,0-.03,0-.03.59,0,.59h3.4s.02-.57,0-.59Z"/>
    <path class="cls-4" d="M124.33,70.09v6.65h-9.01v-6.65h9.01ZM119.01,72.16c-.25-.21-.61.72-.88.81,1.02.34-.21,1.81,1.03,1.55.12-.54-.35-1.67.44-1.48-.21-.12-.55-.85-.59-.88ZM120.9,74.52c.02-.36-.04-.74,0-1.1.07-.61.49-.52-.31-1.26-.14.23-.56.52-.56.81,0,.09.22.05.25.17.06.27-.06,1.31,0,1.38h.62ZM121.52,74.67c-.12-.12-2.93,0-3.4,0-.03,0-.03.59,0,.59h3.4s.02-.57,0-.59Z"/>
    <path class="cls-4" d="M134.18,70.09v6.65h-9.01v-6.65h9.01ZM128.86,72.16c-.25-.21-.61.72-.88.81,1.02.34-.21,1.81,1.03,1.55.12-.54-.35-1.67.44-1.48-.21-.12-.55-.85-.59-.88ZM130.93,74.52c.02-.36-.05-.74,0-1.1.09-.61.59-.52-.37-1.26-.17.23-.67.52-.67.81,0,.09.27.05.3.17.07.27-.07,1.31,0,1.38h.74ZM131.38,74.67c-.12-.12-2.93,0-3.4,0-.03,0-.03.59,0,.59h3.4s.02-.57,0-.59Z"/>
  </g>
</svg>