<?xml version="1.0" encoding="UTF-8"?>
<svg id="Capa_1" data-name="Capa 1" xmlns="http://www.w3.org/2000/svg" viewBox="0 0 386.04 119.65">
  <defs>
    <style>
      .cls-1 {
        fill: #316933;
      }

      .cls-2 {
        fill: #383b3e;
      }

      .cls-3 {
        fill: #464545;
      }

      .cls-4 {
        fill: #4f8437;
      }
    </style>
  </defs>
  <g>
    <path class="cls-3" d="M170.2,66.19c0-7.78,3.46-12.09,9.75-12.09s9.75,4.21,9.75,12.09-3.45,12.03-9.75,12.03-9.75-4.15-9.75-12.03ZM185.2,66.19c0-5.63-1.56-7.96-5.25-7.96s-5.25,2.43-5.25,7.96,1.57,7.84,5.25,7.84,5.25-2.38,5.25-7.84Z"/>
    <path class="cls-3" d="M193.55,76.51v-22.55c1.38-.38,2.97-.38,4.35,0v8c.86-1.12,2.52-2.1,4.71-2.1,4.17,0,6.64,3.17,6.64,8.8,0,6.07-3.04,9.55-8.33,9.55-2.67,0-5.35-.62-7.37-1.71ZM204.84,68.93c0-3.46-1.04-5-3.33-5-2.08,0-3.66,1.66-3.66,4.34v5.3c.82.39,1.95.59,3.16.59,2.64,0,3.83-1.61,3.83-5.22Z"/>
    <path class="cls-3" d="M212.68,62.22c2.41-1.51,5.01-2.37,7.27-2.37,1.34,0,2.58.26,3.52.71.08,1.51-.34,3.01-1.14,4.12-.61-.38-1.36-.59-2.08-.59-1.09,0-2.21.39-3.22,1.07v12.56c-1.38.38-2.97.38-4.35,0v-15.51Z"/>
    <path class="cls-3" d="M224.11,72.41c0-3.53,2.53-5.55,6.95-5.55,1.59,0,3.05.29,3.95.79l.02-.97c.04-1.93-1.19-2.89-3.64-2.89-1.52,0-3.1.38-4.35,1.05-.86-.83-1.32-2.06-1.28-3.37,1.65-1.01,3.81-1.59,5.92-1.59,4.83,0,7.5,2.23,7.5,7.9v8.74c-2.13,1.08-4.94,1.71-7.7,1.71-4.68,0-7.36-2.12-7.36-5.81ZM234.98,74.1v-3.18c-.82-.45-2.03-.71-3.26-.71-2.35,0-3.42.69-3.42,2.22s1.12,2.16,3.46,2.16c1.26,0,2.45-.18,3.21-.49Z"/>
    <path class="cls-4" d="M258.26,77.88h-14.84v-23.45h14.37c.37,1.28.37,2.75,0,4.03h-9.94v5.54h9.05c.37,1.23.37,2.65,0,3.88h-9.05v5.91h10.41c.37,1.3.37,2.79,0,4.09Z"/>
    <path class="cls-4" d="M272.25,76.07c-.88,1.27-2.41,2.17-4.72,2.17-4.28,0-6.63-3.14-6.63-8.82,0-6.08,2.97-9.55,8.16-9.55,2.65,0,5.39.86,7.54,2.35v20.71c-1.11.82-2.7,1.27-4.35,1.28v-8.15ZM272.28,69.18v-4.48c-.85-.52-2-.79-3.16-.79-2.64,0-3.84,1.66-3.84,5.24s1,5,3.19,5c2.33,0,3.8-1.92,3.8-4.98Z"/>
    <path class="cls-4" d="M295.89,76.51c-2.54,1.12-5.27,1.71-8.11,1.71-4.73,0-7.08-2.01-7.08-6.07v-11.79c1.38-.37,2.95-.37,4.33,0v10.96c0,1.89.99,2.82,2.99,2.82,1.22,0,2.49-.21,3.5-.59v-13.19c1.39-.37,2.98-.37,4.37,0v16.15Z"/>
    <path class="cls-4" d="M300.23,53.43c1.36-.42,2.91-.42,4.27,0,.37,1.19.37,2.55,0,3.74-1.36.39-2.91.39-4.27,0-.37-1.19-.37-2.55,0-3.74ZM300.19,60.13c1.38.35,2.97.35,4.35,0v17.59c-1.38.4-2.97.4-4.35,0v-17.59Z"/>
    <path class="cls-4" d="M324.8,68.82c0,5.98-2.59,9.4-7.11,9.4-1.61,0-3.15-.46-4.24-1.39v7.09c-1.39.38-2.96.38-4.35,0v-21.68c2.13-1.51,4.96-2.37,7.78-2.37,5.19,0,7.92,3.09,7.92,8.95ZM313.41,64.66v7.98c.86.94,2.09,1.48,3.39,1.48,2.48,0,3.6-1.63,3.6-5.28,0-3.37-1.19-4.92-3.82-4.92-1.17,0-2.33.26-3.18.75Z"/>
  </g>
  <g>
    <path class="cls-2" d="M125.95,64.7c-.28.04-.96.1-1.15.19-.17.08-.18.33-.29.41-.19.15-.63.21-.99.48-.27.21-.97.91-1.02,1.22-1.42,1-3.2,1.89-4.47,3.06-.06.06-.13.16-.13.25l-.19-.25c-.13.14-.24.27-.42.35-.58.28-1.9.92-2.46,1.05-.59.14-1.72.23-2.36.26-4.08.21-8.35-.17-12.45,0v7.72c0,.07.24.38.33.43.42.27,3.97.15,4.77.14.06.51-.55.53-.89.96-.61.75-.81,1.67-.89,2.61,7.04.03,14.09-.04,21.13,0,.23,0,.41.14.43.14h-25.33c-1.62-.31-2.92-1.51-3.26-3.12.24-5.33-.65-10.6.83-15.76,1.04-3.6,2.47-7.13,3.36-10.75l-12.16-23.32-.51-.76c-5.52,9.12-11.15,18.17-16.53,27.38l8.45,19.49c1.01,2.47,6.19,1.76,7.14,3.83.62,1.35-.11,2.85-1.61,3.03-5.68-.35-11.87.44-17.49,0-2.17-.17-4.85-1.42-6.5-2.82-5.23-4.43-5.42-11.42-1.52-16.83.49-.68,2.57-2.79,2.7-3.3.22-.85-.4-2.97-.36-4.06.07-2.04,1.35-3.79,3.19-4.6,5.51-12.78,10.7-25.73,16.24-38.51,3.3-5.2,11.25-3.68,12.45,2.43.23,1.16-.11,2.06.18,3.14l17.01,28.29.39.12c3.44.27,7.48-.38,10.84,0,1.8.21,3.29,1.72,3.52,3.5v13.59ZM84.78,14.47c-.26.25-.7.89-.87,1.23l-15.1,36.18c.41.14,1.39.95,1.71.71.16-.12.53-.77.67-.99,6.48-10.07,12.17-20.67,18.63-30.76.94-1.74,1.77-3.59.69-5.49-1.14-1.99-4.03-2.49-5.72-.89ZM101.84,50.03c.97-1.05,2.07-2.37,3.65-2.41.43-.01,2.27.48,2.07-.3l-15.1-24.97-2.52,4.12-.08.51c3.92,7.73,8.12,15.31,11.98,23.07ZM114.72,52.07c-2.14.07-4.31-.09-6.45,0-.27.01-.51.12-.76.13-.78.05-1.84-.25-2.36.45-.33.43-.95,2.72-1.18,3.41-1.34,4.11-2.5,8.29-3.8,12.41l.19.19c4.79-.05,9.61.18,14.36-.38v-16.21ZM121.68,52.07c-1.03-.22-2.78.16-3.89,0v14.68c.19.04.28-.07.42-.15.92-.52,1.84-1.26,2.81-1.78.36-.19,1.19-.33,1.31-.73l-.07-11.31c.05-.28-.35-.65-.58-.7ZM66.83,54.91c-.37.08-.97.55-1.17.87-1.36,2.1,1.76,4.28,3.25,2.1.99-1.46-.35-3.32-2.08-2.97Z"/>
    <path class="cls-2" d="M129.27,88.31c.19-.03.98.04,1.02,0,.11-.12-.31-.91.57-1.03.37-.05,2.24-.06,2.53.03.55.16.23.97.42,1,.14.02.92.03.95,0,.08-.08-.24-.89.45-1.02.28-.05,2.45-.05,2.66.02.44.15.26.98.41,1,.13.02.9.01.94-.02.08-.07.04-.86.49-.99.25-.07,2.22.27,2.34.45.27.37-.05,1.02-.01,1.07.03.03.78.25.82.24.24-.06.23-.66.77-.62.36.02,2.07,1.25,2.1,1.62.03.3-.68.54-.38,1,.46.69.95.03,1.21.08.23.04,1.24,1.97,1.23,2.22,0,.44-1.07.31-.75,1.25.14.41.99-.06,1.13.66.05.29.04,1.89-.06,2.1-.29.59-1.23-.24-1.19.86.02.49,1,.14.68,1.31-.06.23-.81,1.65-.96,1.73-.35.18-.71-.52-1.08-.2-.75.65.25.9.17,1.32-.08.39-2.76,2.71-2.79.85-.14.14-.86.35-.89.39-.05.07.29.69.07,1.02-.16.25-2.55.77-2.77.2-.31-.78.32-.95-1.05-.85-.16.03,0,.91-.35,1.07-.29.13-2.35.15-2.71.08-.69-.13-.34-.85-.46-1-.03-.04-.68-.14-.82-.15-.29,0-.15,0-.19.2-.05.28.04.81-.34.94-.21.07-2.37.07-2.66.02-.72-.13-.35-1.05-.45-1.15-.04-.04-.98-.05-1.09.12-.2.3.19.92-.37,1.03-.31.06-2.39.05-2.65-.03-.53-.16-.28-.93-.34-1-.04-.04-.88.03-1.08,0-.18.03.13.84-.42,1-.29.09-2.04.08-2.4.03-1.04-.14-.07-1.17-1.14-1.17s-.1,1.03-1.14,1.17c-.36.05-2.11.05-2.4-.03-.67-.2.1-1.13-.92-1.13-1.07,0-.1,1.03-1.14,1.17-.33.04-2.31.05-2.54-.03-.44-.15-.26-.98-.41-1-.13-.02-.92-.03-.95,0-.06.07.19.84-.34,1-.27.08-2.34.08-2.65.03-.78-.14.1-1.13-1.15-1.15-.65-.01-.08.61-.51,1.03-.17.17-2.58.2-2.91.1-.57-.17-.23-1.1-.41-1.12-.3-.04-.63.13-.95,0,0,.3.04.8-.19,1.02-.17.17-2.59.2-2.91.1-.55-.17-.42-1.11-.54-1.13-1.52-.26-.53.99-1.4,1.15-.31.06-2.26.06-2.52-.02-.59-.17-.12-1.11-.65-1.12-.08,0-.81.09-.84.12-.32.33.7,1.35-1.69.86-1.95-.4-.84-1.17-.99-1.36-.03-.03-.68-.27-.8-.24-.4.1-.31.69-.78.62-.38-.05-2.04-1.3-2.1-1.61-.06-.31.46-.61.48-.77,0-.04-.35-.65-.39-.67-.15-.11-.71.52-1.2.12-.2-.17-.96-1.72-.95-1.98.03-.59,1.06-.28.74-1.25-.12-.37-.7-.05-1.01-.39-.34-.37-.34-2.13-.06-2.5.26-.34.88.16,1.03-.37.3-1.08-.76-.58-.71-1.34.02-.32.91-2.04,1.23-2.1.23-.04.58.34.75.33.08,0,.53-.46.55-.56.09-.45-.85-.57-.24-1.26.16-.18,1.54-1.18,1.73-1.21.66-.1.58.55.9.61.94.19.57-1.01.74-1.26.11-.16,2.12-.57,2.41-.48.66.2-.11,1.22,1.29,1,.17-.03-.06-.77.36-.94.3-.13,2.34-.15,2.71-.08.69.13.37.93.45,1.02.03.03.82.03.95,0,.17-.03.02-.79.36-.94.29-.13,2.48-.15,2.84-.08.59.11.38.95.45,1.02.04.04.99.04,1.02,0,.04-.04-.05-.61.02-.82.06-.17.33-.16.37-.3.1-.38-.17-1.57.12-1.77.13-.09,2.84-.11,3.11-.03.46.14.34.75.34,1.12l21.95-.13v1.91ZM131.82,100.69h8.61c.2,0,1.28-.62,1.51-.79,3.18-2.32,2.09-7.23-1.67-8.11l-47.45-.04c-4.17.36-5.5,5.7-2.14,8.15.3.22,1.32.79,1.64.79h8.29s.14.12.25.13l.07-.26c-.46.14-1.9-1.58-1.91-1.71-.03-.8.48-1.67,1.35-1.72,10.77.03,21.56-.12,32.32.08.8.17,1.1,1.15.92,1.87-.03.13-.42.17-.58.34-.39.38-.69.95-1.21,1.28ZM102.73,100.82h5.49c.06-.3-.04-.2-.16-.29-.34-.22-.6-.23-.92-.6-.21-.25-.43-.88-.57-.96-.18-.11-1.99-.11-2.17,0-.13.08-.45.85-.7,1.09-.28.28-.52.3-.8.47-.13.08-.23-.01-.16.29ZM110,100.82h5.36c.09-.36-.29-.27-.5-.45-.35-.3-1.07-1.36-1.15-1.4-.19-.09-2.04-.11-2.15-.04-.04.02-.25.61-.4.81-.14.18-.4.43-.57.57-.2.17-.63.13-.57.51ZM117.15,100.82h5.49c.06-.3-.04-.2-.16-.29-.27-.17-.51-.19-.8-.47-.25-.24-.56-1.01-.7-1.09-.18-.11-1.99-.11-2.17,0-.14.08-.36.72-.57.96-.32.37-.58.38-.92.6-.13.08-.22-.01-.16.29ZM124.42,100.82h5.49c.06-.3-.04-.2-.16-.29-.34-.22-.6-.23-.92-.6-.21-.25-.43-.88-.57-.96-.15-.09-2.17-.11-2.28-.04-.05.03-.33.85-.53,1.07-.22.25-.6.37-.86.54-.11.08-.23-.02-.17.29Z"/>
    <path class="cls-1" d="M137.69,64.06c.17.78.62.66,1.34.74.29.03.74.05,1.09.21.9.43,1.61,1.48,1.75,2.46.62,4.27-.5,9.64.17,14,0,1.07-.74,2.13-1.86,2.23-5.08-.02-10.17.02-15.25,0-.02,0-.2-.14-.43-.14-7.04-.03-14.09.04-21.13,0,.08-.95.28-1.86.89-2.61.35-.42.95-.45.89-.96.52,0,1.01-.13,1.46-.13,2.87-.03,5.75.03,8.62,0-.15-2.64.2-5.5,0-8.11-.03-.39.06-.33-.38-.31.56-.14,1.88-.77,2.46-1.05.17-.08.29-.21.42-.35l.19.25c0-.09.07-.2.13-.25l.06,9.7h3.45c.42-.06.97-.17.96-.7v-12.07c.04-.31.74-1.01,1.01-1.22.36-.27.8-.34.99-.48.11-.08.12-.33.29-.41.19-.09.87-.15,1.15-.19,1.19-.18,2.37-.14,3.57-.13.73,0,1.53,0,2.3,0,1.17.01,2.4,0,3.57,0,.02,0,.15.13.31.13.66,0,1.33,0,1.99,0,0-.21-.01-.43,0-.64ZM138.31,74.13c-.08-.51.35-1.77-.3-1.9h-7.92c-.81-.07-.83,1.91-.12,2.04,2.5-.13,5.19.19,7.66,0,.24-.02.47-.04.68-.15ZM133.96,76.72c-.86.19-.79,1.48-.1,1.71,1.62.54,1.83-2.08.1-1.71Z"/>
    <path class="cls-2" d="M137.69,58.7v.51c.02,1.58.07,3.28,0,4.85,0,.21,0,.43,0,.64-.66,0-1.33,0-1.99,0-.16,0-.29-.13-.31-.13v-4.08c-2.92-.45-3.85,1.49-3.57,4.08-.77,0-1.57,0-2.3,0,.14-1.46-.32-3.38.32-4.72.31-.66,2.81-2.8,3.51-3.12.8-.37,3.44-.59,4.08,0,.42.39.25,1.4.26,1.97Z"/>
    <path class="cls-1" d="M137.69,59.21v-.51c0,.15,0,.37,0,.51Z"/>
    <path class="cls-2" d="M88.39,19.48c-.74.75-2.38.57-2.92-.38-1.06-1.88,1.14-3.79,2.77-2.51.89.7.94,2.1.15,2.89Z"/>
    <path class="cls-2" d="M103.66,74.7c1.61-1.61,3.78,1.26,1.92,2.36-1.58.93-3.18-1.1-1.92-2.36Z"/>
    <path class="cls-2" d="M92.31,97.71c-2.07-2.01.71-5.32,3.08-3.66,2.79,1.95-.61,6.06-3.08,3.66Z"/>
    <path class="cls-2" d="M138.3,93.7c3.73-.77,3.97,4.72.61,4.7-2.85-.01-3.16-4.18-.61-4.7Z"/>
  </g>
</svg>