<?xml version="1.0" encoding="UTF-8"?>
<svg id="Capa_1" data-name="Capa 1" xmlns="http://www.w3.org/2000/svg" viewBox="0 0 386.04 119.65">
  <defs>
    <style>
      .cls-1 {
        fill: #464545;
      }

      .cls-2 {
        fill: #4f8437;
      }

      .cls-3 {
        fill: #424342;
      }

      .cls-4 {
        fill: #4f8433;
      }
    </style>
  </defs>
  <g>
    <path class="cls-1" d="M180.28,60.06c0-7.78,3.46-12.09,9.75-12.09s9.75,4.21,9.75,12.09-3.45,12.03-9.75,12.03-9.75-4.15-9.75-12.03ZM195.28,60.06c0-5.64-1.56-7.96-5.25-7.96s-5.25,2.43-5.25,7.96,1.57,7.84,5.25,7.84,5.25-2.38,5.25-7.84Z"/>
    <path class="cls-1" d="M210.99,72.09c-2.67,0-5.35-.62-7.37-1.71v-22.55c1.38-.38,2.97-.38,4.35,0v8c.86-1.12,2.52-2.1,4.71-2.1,4.17,0,6.64,3.17,6.64,8.8,0,6.07-3.04,9.55-8.33,9.55h0ZM214.92,62.81c0-3.46-1.04-5-3.33-5-2.08,0-3.66,1.66-3.66,4.34v5.3c.82.39,1.95.59,3.16.59,2.64,0,3.83-1.61,3.83-5.22Z"/>
    <path class="cls-1" d="M222.75,56.1c2.41-1.51,5.01-2.37,7.27-2.37,1.34,0,2.58.26,3.52.71.08,1.51-.34,3.01-1.14,4.12-.61-.38-1.36-.59-2.08-.59-1.09,0-2.21.39-3.22,1.07v12.56c-1.38.38-2.97.38-4.35,0v-15.51Z"/>
    <path class="cls-1" d="M234.19,66.29c0-3.53,2.53-5.55,6.95-5.55,1.59,0,3.05.29,3.95.79l.02-.97c.04-1.93-1.19-2.89-3.64-2.89-1.52,0-3.1.38-4.35,1.05-.86-.83-1.32-2.06-1.28-3.37,1.65-1.01,3.81-1.59,5.92-1.59,4.83,0,7.5,2.23,7.5,7.9v8.74c-2.13,1.09-4.94,1.71-7.7,1.71-4.68,0-7.36-2.12-7.36-5.81ZM245.06,67.98v-3.18c-.82-.45-2.03-.71-3.26-.71-2.35,0-3.42.69-3.42,2.22s1.12,2.16,3.46,2.16c1.26,0,2.45-.18,3.21-.49Z"/>
    <path class="cls-2" d="M252.75,60.2c0-7.57,3.64-12.23,9.47-12.23,2.84,0,5.11,1.17,6.36,3.26-.29,1.38-1.25,2.46-2.57,2.96-.77-1.24-2.05-1.96-3.63-1.96-3.36,0-5.08,2.55-5.08,7.71s2.01,7.84,6.14,7.84c1.7,0,3.21-.34,4.41-.96.79.9,1.19,2.38,1.04,3.85-1.61.88-3.71,1.43-6.05,1.43-6.49,0-10.1-4.17-10.1-11.89Z"/>
    <path class="cls-2" d="M271.48,62.92c0-5.91,2.91-9.18,8.11-9.18s8.1,3.05,8.1,9.18-2.95,9.17-8.1,9.17c-5.45,0-8.11-3.04-8.11-9.17ZM283.29,62.92c0-3.72-1.07-5.21-3.7-5.21s-3.71,1.56-3.71,5.21,1.08,5.15,3.71,5.15,3.7-1.54,3.7-5.15Z"/>
    <path class="cls-2" d="M289.6,70.73c-.15-1.37.24-2.69,1.07-3.61,1.49.61,3.23.97,4.76.97,1.87,0,2.98-.6,2.98-1.59,0-2.46-8.09-1.83-8.09-7.56,0-3.19,2.54-5.21,6.23-5.21,2.41,0,4.55.91,5.76,2.49-.26,1.26-1.12,2.23-2.36,2.65-.72-.82-1.88-1.29-3.11-1.29-1.38,0-2.2.5-2.2,1.32,0,2.46,8.21,1.45,8.21,7.7,0,3.39-2.71,5.5-6.87,5.5-2.26,0-4.59-.5-6.38-1.37Z"/>
    <path class="cls-2" d="M315.32,70.4c-1.25,1.08-3.01,1.7-4.84,1.7-3.03,0-4.7-1.87-4.7-5.27v-13.83c1.08-1.66,2.66-3.01,4.35-3.71v4.8h4.49c.05,1.24-.22,2.57-.77,3.65h-3.72v8.14c0,1.65.53,2.39,1.74,2.39.86,0,1.7-.35,2.42-.79.69.61,1.11,1.76,1.02,2.92Z"/>
  </g>
  <g>
    <path class="cls-3" d="M79.43,106.51c-4.56-.54-8.77-4.63-9.24-9.25V21.56c.91-4.41,3.87-7.86,8.53-8.21,15.75-1.18,32.96.93,48.87,0,4.1.37,7.54,3.83,8.18,7.86l.02,41.48c-1.96.23-5.25,3.36-5.25,5.27v7.15h-.35V22.96c0-.45-1.97-1.49-2.6-1.24-15.93,1.03-33.48-1.32-49.22,0-2.14.18-2.37.87-2.62,2.96v69.8c-.42,1.48,2.02,5.39,3.33,5.39h34.19s.52.49.52.52v6.1h-34.36Z"/>
    <path class="cls-4" d="M153.46,51.81c1.26-.28,7.29-.27,8.63-.05.88.14,1.75.63,1.93,1.56.46,2.39-.03,7.38,0,10.12.12,13.7-.07,27.69.03,41.52,0,.86-.39,1.38-1.25,1.54-1.2.23-8.56.23-9.76.01-.85-.16-1.06-.81-1.2-1.59l-.04-51.27c-.05-.95.8-1.64,1.66-1.83Z"/>
    <path class="cls-3" d="M82.99,28.78l40.24.09c.59.19.91.43,1.03,1.06.17.94.15,10.84-.06,11.45-.12.36-.4.52-.72.67-13.43.55-27.01.18-40.49.19-.44-.13-.85-.66-1.02-1.07-.43-1.02-.47-9.15-.24-10.53.11-.68.57-1.66,1.27-1.87Z"/>
    <path class="cls-4" d="M135.5,67.52c.67-.67,10-.66,10.93-.1.27.16.69.66.78.97l.09,36.22c.05.95-.8,1.64-1.66,1.83-1.19.26-8.11.29-9.33.06-.57-.11-.97-.36-1.16-.93.45-4.41-.99-36.71.36-38.05Z"/>
    <path class="cls-4" d="M118.76,80.08c.67-.67,10-.66,10.93-.1.27.16.69.66.78.97l.08,23.31c-.02.92-.46,1.81-1.38,2.11-1.02.33-7.67.34-8.9.13-.68-.11-1.66-.57-1.87-1.27.25-3.12-.72-24.06.36-25.14Z"/>
    <path class="cls-3" d="M83.69,65.07c1.28-.29,6.19-.25,7.61-.08.65.08,1.55.3,1.94.85.48.68.48,7.82.33,9.1-.21,1.77-.95,2.09-2.62,2.26-1.85.19-7.63.38-8.72-1.05-.73-.97-.73-7.43-.51-8.87.16-1.04.93-1.98,1.97-2.21ZM86.46,69.23c-.82.27-.77,2.96-.42,3.46.37.53,3.46.99,3.7-.88.32-2.5-.81-3.39-3.28-2.58Z"/>
    <path class="cls-3" d="M98.69,65.07c1.27-.29,6.52-.25,7.96-.08.65.08,1.55.3,1.94.85.48.68.48,7.82.33,9.1-.21,1.77-.95,2.09-2.62,2.26-1.89.19-7.88.41-8.92-1.2-.48-.74-.5-7.83-.3-9.07.15-.97.64-1.64,1.62-1.87ZM101.28,72.97c.35.22,3.33.16,3.64-.28.31-.45.31-3.02-.17-3.36-.33-.23-3.19-.28-3.46-.1-.52.33-.52,3.41,0,3.74Z"/>
    <path class="cls-3" d="M114.04,49.37c1.02-.23,8.42-.22,9.16.11.67.3.98,1.03,1.07,1.72.15,1.15.12,8.18-.2,8.91-.3.67-1.03.98-1.72,1.07-1.55.2-6.51.2-8.06,0-1.35-.18-1.76-.99-1.91-2.28-.17-1.47-.21-8.01.54-8.89.28-.33.69-.54,1.11-.63ZM120.37,56.92c.22-.35.15-2.99-.28-3.29-.63-.44-2.65,0-3.51-.15.13.84-.33,3.23.33,3.69.51.35,3.21.16,3.46-.25Z"/>
    <path class="cls-3" d="M97.5,92.1c-.62-.77-.64-7.82-.47-9.16.15-1.17.76-1.77,1.92-1.92,1.59-.2,6.47-.2,8.06,0,1.17.15,1.77.76,1.92,1.92.2,1.56.21,6.51,0,8.06-.21,1.57-1.21,1.79-2.62,1.92-1.65.15-7.9.31-8.81-.82ZM104.67,84.93c-.35-.22-2.99-.15-3.29.28-.44.63,0,2.65-.15,3.51.84-.13,3.23.33,3.69-.33.35-.51.16-3.21-.25-3.46Z"/>
    <path class="cls-3" d="M82.99,81.11c.86-.26,7.52-.23,8.67-.09,1.17.15,1.77.76,1.92,1.92.22,1.68.17,5.98,0,7.71-.15,1.58-.66,2.07-2.28,2.26-1.91.22-8.31.43-9.28-1.21-.48-.81-.51-7.49-.31-8.72.11-.68.57-1.66,1.27-1.87ZM86.46,84.93c-.82.27-.77,2.96-.42,3.46.37.53,3.46.99,3.7-.88.32-2.5-.81-3.39-3.28-2.58Z"/>
    <path class="cls-3" d="M93.13,60.72c-.65.65-9.79.67-10.58.11-.69-.49-.79-1.5-.86-2.28-.15-1.65-.31-7.9.82-8.81.77-.62,7.82-.64,9.16-.47,1.45.19,1.8.93,1.92,2.26.13,1.32.15,8.58-.45,9.18ZM89.67,56.92c.17-.28.13-2.8-.1-3.11-.56-.78-4.22-1.31-4.06,1.59.15,2.75,3.77,2.14,4.16,1.53Z"/>
    <path class="cls-3" d="M98.69,49.37c1.02-.23,8.42-.22,9.16.11.67.3.98,1.03,1.07,1.72.15,1.15.12,8.18-.2,8.91-.3.67-1.03.98-1.72,1.07-1.55.2-6.51.2-8.06,0-1.35-.18-1.76-.99-1.91-2.28-.17-1.47-.21-8.01.54-8.89.28-.33.69-.54,1.11-.63ZM105.02,56.92c.15-.24.12-2.13.04-2.56-.33-1.79-4.59-2.36-4.2,1.4.24,2.32,3.83,1.68,4.16,1.16Z"/>
    <path class="cls-3" d="M124.26,75.11h-5.06c-1.44,0-3.3,2.01-4.21,2.1-1.22.12-2.46-1.08-2.61-2.25-.15-1.13-.17-7.44.09-8.32.65-2.23,7.19-1.84,9.19-1.66.89.08,2.23.29,2.53,1.31.63,2.1-.32,6.46.07,8.83ZM120.02,69.23c-.35-.22-2.99-.15-3.29.28-.31.45-.31,3.02.17,3.36.45.31,3.02.31,3.36-.17.35-.51.16-3.21-.25-3.46Z"/>
    <path class="cls-3" d="M113.79,81.39v11.16c-.88.12-1.26-.89-1.37-1.59-.17-1.1-.17-8.17.16-8.87.19-.41.72-.8,1.22-.7Z"/>
  </g>
</svg>