<?xml version="1.0" encoding="UTF-8"?>
<svg id="Capa_1" data-name="Capa 1" xmlns="http://www.w3.org/2000/svg" viewBox="0 0 386.04 119.65">
  <defs>
    <style>
      .cls-1 {
        fill: #3b8135;
      }

      .cls-2 {
        fill: #464545;
      }

      .cls-3 {
        fill: #4f8437;
      }

      .cls-4 {
        fill: #3a3e3f;
      }
    </style>
  </defs>
  <g>
    <path class="cls-2" d="M175.05,60.13c0-7.78,3.46-12.09,9.75-12.09s9.75,4.21,9.75,12.09-3.45,12.03-9.75,12.03-9.75-4.15-9.75-12.03ZM190.05,60.13c0-5.63-1.56-7.96-5.25-7.96s-5.25,2.43-5.25,7.96,1.57,7.84,5.25,7.84,5.25-2.38,5.25-7.84Z"/>
    <path class="cls-2" d="M198.39,70.45v-22.55c1.38-.38,2.97-.38,4.35,0v8c.86-1.12,2.52-2.1,4.71-2.1,4.17,0,6.64,3.17,6.64,8.8,0,6.07-3.04,9.55-8.33,9.55-2.67,0-5.35-.62-7.37-1.71ZM209.69,62.87c0-3.46-1.04-5-3.33-5-2.08,0-3.66,1.66-3.66,4.34v5.3c.82.39,1.95.59,3.16.59,2.64,0,3.83-1.61,3.83-5.22Z"/>
    <path class="cls-2" d="M217.52,56.16c2.41-1.51,5.01-2.37,7.27-2.37,1.34,0,2.58.26,3.52.71.08,1.51-.34,3.01-1.14,4.12-.61-.38-1.36-.59-2.08-.59-1.09,0-2.21.39-3.22,1.07v12.56c-1.38.38-2.97.38-4.35,0v-15.51Z"/>
    <path class="cls-2" d="M228.96,66.35c0-3.53,2.53-5.55,6.95-5.55,1.59,0,3.05.29,3.95.79l.02-.97c.04-1.93-1.19-2.89-3.64-2.89-1.52,0-3.1.38-4.35,1.05-.86-.83-1.32-2.06-1.28-3.37,1.65-1.01,3.81-1.59,5.92-1.59,4.83,0,7.5,2.23,7.5,7.9v8.74c-2.13,1.08-4.94,1.71-7.7,1.71-4.68,0-7.36-2.12-7.36-5.81ZM239.83,68.04v-3.18c-.82-.45-2.03-.71-3.26-.71-2.35,0-3.42.69-3.42,2.22s1.12,2.16,3.46,2.16c1.26,0,2.45-.18,3.21-.49Z"/>
    <path class="cls-3" d="M247.13,70.23c-.13-1.44.29-2.79,1.16-3.73,2.14.98,4.45,1.47,6.44,1.47,2.82,0,4.47-.99,4.47-2.8,0-4.6-11.07-2.24-11.07-10.51,0-3.96,2.98-6.62,7.51-6.62,2.87,0,5.44,1.16,7.05,3.19-.35,1.36-1.21,2.4-2.38,2.87-1.06-1.22-2.6-1.92-4.22-1.92-2.18,0-3.43.86-3.43,2.43,0,4.23,11.03,2.21,11.03,10.22,0,4.61-3.14,7.34-8.63,7.34-2.92,0-5.82-.73-7.93-1.93Z"/>
    <path class="cls-3" d="M266.13,66.35c0-3.53,2.53-5.55,6.95-5.55,1.59,0,3.05.29,3.95.79l.02-.97c.04-1.93-1.19-2.89-3.64-2.89-1.52,0-3.1.38-4.35,1.05-.86-.83-1.32-2.06-1.28-3.37,1.65-1.01,3.81-1.59,5.92-1.59,4.83,0,7.5,2.23,7.5,7.9v8.74c-2.13,1.08-4.94,1.71-7.7,1.71-4.68,0-7.36-2.12-7.36-5.81ZM277,68.04v-3.18c-.82-.45-2.03-.71-3.26-.71-2.35,0-3.42.69-3.42,2.22s1.12,2.16,3.46,2.16c1.26,0,2.45-.18,3.21-.49Z"/>
    <path class="cls-3" d="M289.65,53.76v.59h4.33c.06,1.23-.22,2.63-.77,3.65h-3.57v13.67c-1.39.39-2.96.39-4.35,0v-16.96c0-5.07,1.78-7.22,5.96-7.22,1.49,0,3,.35,4.28,1,.08,1.14-.28,2.24-.98,3.02-.7-.33-1.54-.51-2.35-.51-1.84,0-2.57.78-2.57,2.76Z"/>
    <path class="cls-3" d="M310.42,70.29c-1.73,1.16-4.04,1.87-6.5,1.87-5.48,0-8.51-3.26-8.51-9.1s3.05-9.25,8.38-9.25c4.44,0,7.02,2.34,7.08,6.42.02,1.33-.17,2.87-.54,4.16-3.31.68-7.09.78-10.42.22.47,2.44,1.99,3.55,4.76,3.55,1.6,0,3.22-.44,4.44-1.21.85.79,1.33,2.01,1.31,3.35ZM299.84,61.22c2.43.35,4.83.37,6.79.03.05-.32.08-.72.08-1.08,0-1.62-1.07-2.46-3.1-2.46-2.24,0-3.44,1.1-3.77,3.52Z"/>
  </g>
  <g>
    <path class="cls-4" d="M124.65,20.18l2.15.69-1.08,3.75c-.1.18-.35-.04-.47.04-.2.13-.63,2.68-.7,3.11-.46,2.94-.54,5.85-.53,8.83,0,.54-.19,1.15.15,1.69.49.77,1.71.67,2.06-.2.6-5.29,1.03-10.71,3.18-15.63.14-.19.44.01.63.09,1.68.66,3.81,2.07,5.22,3.21,5.91,4.75,8.74,12.23,8.63,19.74.95.22,1.75-.08,2.7.39,3.22,1.56,2.03,6.56-1.56,6.6-18.25,0-36.45,0-54.7,0-4.52-.36-4.45-6.66.02-6.98.28-.02,1.06.09,1.12,0,0-4.87,1.11-9.53,3.53-13.75,2.12-3.71,6.19-7.82,10.3-9.23.24-.08.45-.26.67-.06.22.21.9,2.33,1.03,2.78.89,2.98,1.35,6.31,1.7,9.41.11,1,.04,2.3.25,3.25.29,1.26,2.18,1.33,2.32-.26.31-3.35.04-9.06-.43-12.43-.02-.18-.15-1.06-.2-1.09l-1.54.41-.82-3.39c.12-.16,2.22-.62,2.47-.87.1-.1.16-1.14.25-1.49.34-1.22,1.6-2.33,2.88-2.47,1.77-.19,5.82-.17,7.61,0,1.92.18,3.21,2.05,3.14,3.9Z"/>
    <path class="cls-4" d="M95.34,55.35v15.48c.5,8.69,4.82,16.66,11.47,22.15,3.3,2.72,7.09,4.83,10.9,6.68.27.02,2.11-.97,2.51-1.18,10.53-5.45,18.73-14.12,19.84-26.53.22-5.53.05-11.07.1-16.6h2.88c.02.43-.03.86,0,1.28.37,5.79.51,14.08-.65,19.71-2.63,12.85-12.97,21.97-24.69,26.71-10.99-4.61-20.59-12.6-24.04-24.39-2.19-7.5-1-15.59-1.31-23.31h2.98Z"/>
    <path class="cls-1" d="M127.88,55.35c.74.12,3.46,1.54,4.45,1.93.97.38,2.69.77,3.49,1.24.14.08.24.16.29.33-.06,3.88.23,7.92.05,11.78-.51,10.74-6.73,17.52-15.43,22.81-.5.31-2.51,1.57-2.93,1.6-.53.03-3.97-2.2-4.64-2.65-6.19-4.08-10.71-8.65-12.8-15.98-1.6-5.61-.81-11.53-1-17.3,0-.14.04-.28.11-.4.17-.26,3.43-1.29,4.02-1.53,1.17-.47,3.28-1.72,4.37-1.9,1.22-.21,4.5-.11,5.84-.03.26.02.51.11.77.11l-.8.48c-3.8,1.59-7.44,3.62-11.42,4.77-.04,1.45.02,2.91,0,4.36-.08,4.54-.14,8.05,1.46,12.41,2.44,6.64,8.08,11.12,14.1,14.37,4.68-2.7,9.31-5.86,12.17-10.56,1.67-2.75,3.12-7.16,3.31-10.36.2-3.34-.14-6.86,0-10.22-1.53-.3-2.97-.91-4.41-1.5-2.24-.93-4.76-2.06-6.93-3.15-.31-.16-.72-.29-.89-.6h6.84Z"/>
    <path class="cls-1" d="M124.67,64.84c.2-.21,1.25-1.22,1.41-1.31.67-.38,1.13-.02,1.64.4.65.53,1.85,1.58,1.22,2.45-4.12,4.27-7.83,8.97-11.96,13.23-.86.89-1.31,1.55-2.52.57l-6.7-6.97c-.25-.48-.19-.82.12-1.26.13-.18,1.46-1.5,1.61-1.58.59-.3,1.13-.06,1.58.35l4.37,4.27c3-3.27,6-6.54,9.05-9.76.12-.12.12-.31.18-.38Z"/>
  </g>
</svg>