<?xml version="1.0" encoding="UTF-8"?>
<svg id="Capa_1" data-name="Capa 1" xmlns="http://www.w3.org/2000/svg" viewBox="0 0 386.04 119.65">
  <defs>
    <style>
      .cls-1 {
        fill: #43853e;
      }

      .cls-2 {
        fill: #464545;
      }

      .cls-3 {
        fill: #4f8437;
      }

      .cls-4 {
        fill: #535049;
      }
    </style>
  </defs>
  <g>
    <path class="cls-2" d="M169.37,70.32c0-7.78,3.46-12.09,9.75-12.09s9.75,4.21,9.75,12.09-3.45,12.03-9.75,12.03-9.75-4.15-9.75-12.03ZM184.37,70.32c0-5.64-1.56-7.96-5.25-7.96s-5.25,2.43-5.25,7.96,1.57,7.84,5.25,7.84,5.25-2.38,5.25-7.84Z"/>
    <path class="cls-2" d="M200.08,82.36c-2.67,0-5.35-.62-7.37-1.71v-22.55c1.38-.38,2.97-.38,4.35,0v8c.86-1.12,2.52-2.1,4.71-2.1,4.17,0,6.64,3.17,6.64,8.8,0,6.07-3.04,9.55-8.33,9.55h0ZM204.01,73.07c0-3.46-1.04-5-3.33-5-2.08,0-3.66,1.66-3.66,4.33v5.3c.82.39,1.95.59,3.16.59,2.64,0,3.83-1.61,3.83-5.22Z"/>
    <path class="cls-2" d="M211.84,66.36c2.41-1.51,5.01-2.37,7.27-2.37,1.34,0,2.58.26,3.52.71.08,1.51-.34,3.01-1.14,4.12-.61-.38-1.36-.59-2.08-.59-1.09,0-2.21.39-3.22,1.07v12.56c-1.38.38-2.97.38-4.35,0v-15.51Z"/>
    <path class="cls-2" d="M223.28,76.55c0-3.53,2.53-5.55,6.95-5.55,1.59,0,3.05.29,3.95.79l.02-.97c.04-1.93-1.19-2.89-3.64-2.89-1.52,0-3.1.38-4.35,1.05-.86-.83-1.32-2.06-1.28-3.37,1.65-1.01,3.81-1.59,5.92-1.59,4.83,0,7.5,2.23,7.5,7.9v8.74c-2.13,1.09-4.94,1.71-7.7,1.71-4.68,0-7.36-2.12-7.36-5.81ZM234.15,78.24v-3.18c-.82-.45-2.03-.71-3.26-.71-2.35,0-3.42.69-3.42,2.22s1.12,2.17,3.46,2.17c1.26,0,2.45-.18,3.21-.49Z"/>
    <path class="cls-3" d="M239.6,58.72c1.46-.39,3.18-.39,4.75,0,1.43,6.25,3.64,13.11,6.02,19.05h.05c2.38-5.94,4.58-12.79,6-19.05,1.53-.38,3.23-.38,4.68,0-1.79,7.65-4.61,16.14-7.7,23.14-1.95.39-4.18.39-6.12,0-3.08-7-5.9-15.49-7.68-23.14Z"/>
    <path class="cls-3" d="M260.41,76.55c0-3.53,2.53-5.55,6.95-5.55,1.59,0,3.05.29,3.95.79l.02-.97c.04-1.93-1.19-2.89-3.64-2.89-1.52,0-3.1.38-4.35,1.05-.86-.83-1.32-2.06-1.28-3.37,1.65-1.01,3.81-1.59,5.92-1.59,4.83,0,7.5,2.23,7.5,7.9v8.74c-2.13,1.09-4.94,1.71-7.7,1.71-4.68,0-7.36-2.12-7.36-5.81ZM271.29,78.24v-3.18c-.82-.45-2.03-.71-3.26-.71-2.35,0-3.42.69-3.42,2.22s1.12,2.17,3.46,2.17c1.26,0,2.45-.18,3.21-.49Z"/>
    <path class="cls-3" d="M279.52,77.69v-19.58c1.38-.38,2.97-.38,4.35,0v18.53c0,1.34.39,1.9,1.34,1.9.6,0,1.2-.27,1.73-.71.72.64,1.08,1.69,1,2.89-.96,1.04-2.44,1.64-4.06,1.64-2.92,0-4.36-1.55-4.36-4.67Z"/>
    <path class="cls-3" d="M305.08,80.65c-2.54,1.12-5.27,1.71-8.11,1.71-4.73,0-7.08-2.01-7.08-6.07v-11.79c1.38-.37,2.95-.37,4.33,0v10.95c0,1.89.99,2.82,2.99,2.82,1.22,0,2.49-.21,3.5-.59v-13.19c1.39-.37,2.98-.37,4.37,0v16.15Z"/>
    <path class="cls-3" d="M323.5,80.49c-1.73,1.16-4.04,1.87-6.5,1.87-5.48,0-8.51-3.27-8.51-9.1s3.05-9.25,8.38-9.25c4.44,0,7.02,2.34,7.08,6.42.02,1.33-.17,2.87-.54,4.16-3.31.68-7.09.78-10.42.22.47,2.44,1.99,3.55,4.76,3.55,1.6,0,3.22-.44,4.44-1.21.85.79,1.33,2.01,1.31,3.34ZM312.91,71.42c2.43.35,4.83.37,6.79.03.05-.32.08-.72.08-1.08,0-1.62-1.07-2.47-3.1-2.47-2.24,0-3.44,1.1-3.77,3.52Z"/>
  </g>
  <g>
    <path class="cls-4" d="M116.72,104.05h-12.76s-.48-.45-.48-.48v-48.77s.45-.48.48-.48h12.6s.48.45.48.48v25.19c0,.26-1.72,2.17-2.07,2.77-4.21,7.24-3.51,14.83,1.75,21.29Z"/>
    <path class="cls-4" d="M84.95,66.63c3.59.26,8.13-.53,11.59-.07.66.09,1.13.18,1.37.89l-.1,35.95-.71.58c-3.58-.24-8.12.54-11.58.08-.66-.09-1.13-.18-1.37-.89l-.08-34.51c0-.66.18-1.8.88-2.03Z"/>
    <path class="cls-1" d="M137.39,12.96l-2.26,15.83c-.76.81-3.68-3.52-4.84-3.41-2.92,2.88-5.92,5.76-9.04,8.42-5.67,4.83-12.01,9.63-18.18,13.79-12.84,8.65-26.6,15.6-41.17,20.89-1-.38-1.22-1.06-.51-1.93,15.95-7.35,31.2-16.71,44.83-27.76,5.73-4.64,10.06-8.98,15.18-14.22.66-.68,3.91-3.06,4.03-3.75.18-1.02-4.28-2.99-3.85-4.64l15.83-3.24Z"/>
    <path class="cls-4" d="M136.1,75.3c-4.7-1.39-9.03-1.16-13.57.65v-35.37s.45-.48.48-.48h12.6s.48.45.48.48v34.72Z"/>
    <path class="cls-4" d="M78.6,103.73c-.59.15-1.14.29-1.76.34-1.46.11-10.41.16-11.15-.18-.15-.07-.65-.59-.65-.64v-25.03c.32.1.7-.32.81-.32h12.27s.48.45.48.48v25.36Z"/>
    <path class="cls-1" d="M127.3,77.97c-5.62.76-10.4,6.05-11.45,11.48-2.86,14.67,16.01,23.44,25.23,11.99,8.51-10.57-.17-25.31-13.78-23.47ZM132.54,99.69c-.37.15-1.22.11-1.27.17-.46.45,1.13,3.46-2.06,2.92-.74-.16-.42-2.79-.55-2.92-.46-.48-6.47-.45-3.33-3.91,1.37.28,2.48,1.37,3.91,1.57,1.81.25,3.92-.4,3.25-2.61-.64-2.1-8.31-1.11-7.7-6.85.35-3.31,3.4-3.06,3.83-3.76.27-.43-.11-2.05.05-2.21.09-.09,2.5-.09,2.59,0,.1.11-.19,1.37.15,1.95.67,1.14,4.34.47,3.53,2.88-.73,2.15-2.17.26-3.54.04-1.85-.3-4.2-.18-3.57,2.26.42,1.61,6.12,1.55,7.46,4.5,1.19,2.61-.25,4.98-2.75,5.98Z"/>
  </g>
</svg>