<?xml version="1.0" encoding="UTF-8"?>
<svg id="Capa_1" data-name="Capa 1" xmlns="http://www.w3.org/2000/svg" viewBox="0 0 462.27 162.34">
  <defs>
    <style>
      .cls-1 {
        fill: #464545;
      }

      .cls-2 {
        fill: #4f8437;
      }
    </style>
  </defs>
  <g>
    <path class="cls-1" d="M102.91,80.1h-4.55v-19.8l-33.36-20.81-1.54-.59-34.66,21.81v38.12h-4.28v-40.8c12.99-8.26,25.98-16.56,39.19-24.46l39.19,24.46v22.07Z"/>
    <path class="cls-2" d="M36.3,105.51c.16.03.36-.02.53,0l27.21,17.35c.58.09,1.03-.3,1.49-.55,1.48-.78,9.36-6.37,9.95-6.37h8.43l-19.86,12.54-39.52-24.44c-.58-.7-.15-2.16-.27-3.07h4.68c.46,0,5.98,4.29,7.36,4.55Z"/>
    <path class="cls-1" d="M57.17,51.2v54.31h-3.21v-27.42c-2.01-1.67-4.46-2.88-6.37-4.6l-.05-14.66.39-.68c2.67-1.84,5.07-4.05,7.66-5.98.47-.35,1-.92,1.58-.96Z"/>
    <path class="cls-1" d="M36.3,105.51l.04-23.1,9.32-8.07.8-.4v31.57c-3.12-.2-6.55.27-9.63,0-.18-.02-.38.03-.53,0Z"/>
    <path class="cls-2" d="M106.39,107.12c-.06.39.09,2.06,0,2.14-.13.13-1.01-.21-1.08.15-.05.29-.09,2.44,0,2.52.1.09.98-.1,1.07,0,.09.08-.07,1.75,0,2.14h-41.2c.42-.42.19-2.07.27-2.14.09-.09.98.1,1.07,0,.1-.09.1-2.59,0-2.68-.1-.09-.98.1-1.07,0-.09-.08.07-1.75,0-2.14h40.93ZM83.11,109.26h-12.84v2.68h12.84v-2.68ZM101.31,109.26h-12.57v2.68h12.57v-2.68Z"/>
    <path class="cls-2" d="M96.76,80.9v12.04h-16.32v-12.04h16.32ZM89.12,84.65c-.46-.38-1.1,1.31-1.6,1.47,1.85.62-.38,3.28,1.87,2.81.21-.98-.64-3.03.81-2.68-.39-.22-1-1.54-1.08-1.6Z"/>
    <path class="cls-2" d="M88.12,93.49v12.04h-16.32v-12.04h16.32ZM80.49,97.24c-.46-.38-1.1,1.31-1.6,1.47,1.85.62-.38,3.28,1.87,2.81.21-.98-.64-3.03.81-2.68-.39-.22-1-1.54-1.08-1.6Z"/>
    <path class="cls-2" d="M105.31,93.49v12.04h-16.32v-12.04h16.32ZM97.68,97.24c-.46-.38-1.1,1.31-1.59,1.47,1.85.62-.38,3.28,1.87,2.81.21-.98-.64-3.03.81-2.68-.39-.22-1-1.54-1.08-1.6Z"/>
    <path class="cls-1" d="M59.04,84.91l9.63,6.02c.51,1.07.68,2.39-.8,2v12.57h-8.83v-20.6Z"/>
    <path class="cls-1" d="M78.83,90.8h-6.15v-22.47c2.19.94,4.17,2.53,6.15,3.88v18.59Z"/>
    <polygon class="cls-1" points="70.54 79.56 59.04 72.2 59.04 61.9 70.54 70.06 70.54 79.56"/>
    <polygon class="cls-1" points="70.54 80.9 70.54 90.8 59.04 83.57 59.04 73.67 70.54 80.9"/>
  </g>
  <g>
    <path class="cls-1" d="M117.87,88.56c0-16.82,7.48-26.15,21.08-26.15s21.08,9.11,21.08,26.15-7.45,26.02-21.08,26.02-21.08-8.98-21.08-26.02ZM150.29,88.56c0-12.18-3.37-17.21-11.35-17.21s-11.35,5.25-11.35,17.21,3.39,16.96,11.35,16.96,11.35-5.14,11.35-16.96Z"/>
    <path class="cls-1" d="M184.27,114.58c-5.76,0-11.56-1.34-15.93-3.69v-48.75c2.99-.83,6.41-.83,9.4,0v17.3c1.85-2.43,5.44-4.54,10.19-4.54,9.03,0,14.35,6.86,14.35,19.02,0,13.13-6.56,20.66-18.02,20.66h0ZM192.77,94.5c0-7.47-2.24-10.82-7.19-10.82-4.49,0-7.91,3.6-7.91,9.37v11.45c1.78.84,4.21,1.27,6.82,1.27,5.7,0,8.28-3.49,8.28-11.28Z"/>
    <path class="cls-1" d="M209.7,79.99c5.22-3.26,10.84-5.13,15.72-5.13,2.91,0,5.59.56,7.6,1.54.17,3.26-.73,6.51-2.46,8.92-1.32-.81-2.93-1.28-4.49-1.28-2.36,0-4.79.85-6.96,2.32v27.15c-2.99.83-6.42.83-9.4,0v-33.53Z"/>
    <path class="cls-1" d="M234.43,102.03c0-7.63,5.48-12.01,15.03-12.01,3.44,0,6.59.62,8.53,1.7l.03-2.09c.08-4.18-2.56-6.25-7.88-6.25-3.28,0-6.71.83-9.41,2.27-1.86-1.8-2.86-4.46-2.76-7.3,3.57-2.19,8.23-3.44,12.8-3.44,10.45,0,16.21,4.82,16.21,17.09v18.9c-4.61,2.35-10.68,3.69-16.65,3.69-10.12,0-15.91-4.57-15.91-12.56ZM257.94,105.68v-6.88c-1.78-.97-4.38-1.54-7.05-1.54-5.09,0-7.39,1.49-7.39,4.8s2.43,4.68,7.49,4.68c2.73,0,5.3-.39,6.95-1.07Z"/>
    <path class="cls-2" d="M273.71,110.42c-.28-3.11.64-6.04,2.51-8.07,4.62,2.11,9.62,3.17,13.93,3.17,6.11,0,9.66-2.15,9.66-6.06,0-9.96-23.93-4.84-23.93-22.72,0-8.57,6.45-14.32,16.25-14.32,6.21,0,11.77,2.51,15.23,6.89-.75,2.94-2.63,5.2-5.15,6.21-2.29-2.64-5.62-4.16-9.13-4.16-4.72,0-7.42,1.87-7.42,5.25,0,9.15,23.85,4.77,23.85,22.1,0,9.98-6.78,15.88-18.66,15.88-6.3,0-12.57-1.58-17.16-4.17Z"/>
    <path class="cls-2" d="M349.74,110.89c-5.5,2.42-11.4,3.69-17.54,3.69-10.23,0-15.3-4.35-15.3-13.12v-25.49c2.98-.8,6.38-.8,9.37,0v23.69c0,4.08,2.14,6.11,6.47,6.11,2.63,0,5.39-.46,7.56-1.27v-28.52c3.01-.79,6.43-.79,9.44,0v34.92Z"/>
    <path class="cls-2" d="M359.13,60.98c2.93-.92,6.3-.92,9.24,0,.79,2.57.79,5.52,0,8.09-2.94.84-6.3.84-9.24,0-.79-2.57-.79-5.52,0-8.09ZM359.05,75.48c2.99.77,6.41.77,9.4,0v38.04c-2.99.87-6.41.87-9.4,0v-38.04Z"/>
    <path class="cls-2" d="M399.27,110.91c-2.71,2.33-6.52,3.67-10.46,3.67-6.55,0-10.15-4.03-10.15-11.39v-29.9c2.34-3.59,5.75-6.51,9.4-8.02v10.37h9.7c.12,2.68-.48,5.56-1.66,7.89h-8.05v17.61c0,3.56,1.14,5.17,3.76,5.17,1.85,0,3.68-.77,5.24-1.71,1.5,1.31,2.4,3.82,2.2,6.31Z"/>
    <path class="cls-2" d="M435.84,110.53c-3.74,2.5-8.73,4.05-14.06,4.05-11.84,0-18.41-7.06-18.41-19.67s6.6-20,18.12-20c9.6,0,15.18,5.05,15.32,13.87.05,2.88-.38,6.21-1.17,8.99-7.15,1.47-15.33,1.7-22.53.47,1.02,5.28,4.31,7.68,10.29,7.68,3.47,0,6.96-.96,9.61-2.62,1.85,1.72,2.88,4.35,2.83,7.23ZM412.95,90.92c5.26.76,10.43.79,14.68.07.12-.69.18-1.55.18-2.34,0-3.49-2.31-5.33-6.71-5.33-4.85,0-7.45,2.38-8.14,7.6Z"/>
  </g>
</svg>