<?xml version="1.0" encoding="UTF-8"?>
<svg id="Capa_1" data-name="Capa 1" xmlns="http://www.w3.org/2000/svg" viewBox="0 0 386.04 119.65">
  <defs>
    <style>
      .cls-1 {
        fill: #464545;
      }

      .cls-2 {
        fill: #448133;
      }

      .cls-3 {
        fill: #4f8437;
      }

      .cls-4 {
        fill: #282929;
      }
    </style>
  </defs>
  <g>
    <path class="cls-1" d="M155.73,58.34c0-7.78,3.46-12.09,9.75-12.09s9.75,4.21,9.75,12.09-3.45,12.03-9.75,12.03-9.75-4.15-9.75-12.03ZM170.73,58.34c0-5.64-1.56-7.96-5.25-7.96s-5.25,2.43-5.25,7.96,1.57,7.84,5.25,7.84,5.25-2.38,5.25-7.84Z"/>
    <path class="cls-1" d="M186.44,70.38c-2.67,0-5.35-.62-7.37-1.71v-22.55c1.38-.38,2.97-.38,4.35,0v8c.86-1.12,2.52-2.1,4.71-2.1,4.17,0,6.64,3.17,6.64,8.8,0,6.07-3.04,9.55-8.33,9.55h0ZM190.37,61.09c0-3.46-1.04-5-3.33-5-2.08,0-3.66,1.66-3.66,4.33v5.3c.82.39,1.95.59,3.16.59,2.64,0,3.83-1.61,3.83-5.22Z"/>
    <path class="cls-1" d="M198.21,54.38c2.41-1.51,5.01-2.37,7.27-2.37,1.34,0,2.58.26,3.52.71.08,1.51-.34,3.01-1.14,4.12-.61-.38-1.36-.59-2.08-.59-1.09,0-2.21.39-3.22,1.07v12.56c-1.38.38-2.97.38-4.35,0v-15.51Z"/>
    <path class="cls-1" d="M209.64,64.57c0-3.53,2.53-5.55,6.95-5.55,1.59,0,3.05.29,3.95.79l.02-.97c.04-1.93-1.19-2.89-3.64-2.89-1.52,0-3.1.38-4.35,1.05-.86-.83-1.32-2.06-1.28-3.37,1.65-1.01,3.81-1.59,5.92-1.59,4.83,0,7.5,2.23,7.5,7.9v8.74c-2.13,1.08-4.94,1.71-7.7,1.71-4.68,0-7.36-2.12-7.36-5.81ZM220.51,66.26v-3.18c-.82-.45-2.03-.71-3.26-.71-2.35,0-3.42.69-3.42,2.22s1.12,2.17,3.46,2.17c1.26,0,2.45-.18,3.21-.49Z"/>
    <path class="cls-3" d="M246.47,72.14c-.22,1.54-1.18,2.69-2.64,3.16-2.11-.95-3.77-2.74-4.66-4.99-.4.04-.8.07-1.22.07-6.46,0-9.75-4.12-9.75-12.03s3.5-12.09,9.75-12.09,9.75,4.21,9.75,12.09c0,5.2-1.87,9-5,10.82.78,1.32,2.12,2.38,3.78,2.98ZM237.95,66.19c3.54,0,5.22-2.44,5.22-7.84s-1.48-7.96-5.22-7.96-5.22,2.38-5.22,7.96,1.48,7.84,5.22,7.84Z"/>
    <path class="cls-3" d="M270.07,69.87c-1.45.38-3.11.38-4.59,0-.34-1.49-.71-2.99-1.11-4.49h-9.68c-.4,1.5-.76,3-1.1,4.49-1.51.39-3.2.39-4.66,0,1.97-7.98,4.6-15.78,7.52-23.11,1.93-.38,4.15-.38,6.09,0,2.92,7.33,5.56,15.13,7.53,23.11ZM263.36,61.75c-1.16-3.96-2.46-7.8-3.81-11.21h-.03c-1.34,3.4-2.66,7.25-3.82,11.21h7.66Z"/>
    <path class="cls-3" d="M281.88,44.34c1.39.1,2.79.65,3.85,1.51l-10.01,26.24c-1.39-.1-2.79-.65-3.85-1.51l10.01-26.24Z"/>
    <path class="cls-3" d="M304.13,72.14c-.22,1.54-1.18,2.69-2.64,3.16-2.11-.95-3.77-2.74-4.67-4.99-.4.04-.8.07-1.22.07-6.46,0-9.75-4.12-9.75-12.03s3.5-12.09,9.75-12.09,9.75,4.21,9.75,12.09c0,5.2-1.87,9-5,10.82.78,1.32,2.12,2.38,3.78,2.98ZM295.61,66.19c3.54,0,5.22-2.44,5.22-7.84s-1.48-7.96-5.22-7.96-5.22,2.38-5.22,7.96,1.48,7.84,5.22,7.84Z"/>
    <path class="cls-3" d="M308.72,58.48c0-7.57,3.64-12.23,9.47-12.23,2.84,0,5.11,1.17,6.36,3.26-.29,1.38-1.25,2.46-2.57,2.96-.77-1.24-2.05-1.96-3.63-1.96-3.36,0-5.08,2.55-5.08,7.7s2.01,7.84,6.14,7.84c1.7,0,3.21-.34,4.41-.96.79.9,1.19,2.38,1.04,3.85-1.61.88-3.71,1.43-6.05,1.43-6.49,0-10.1-4.18-10.1-11.89Z"/>
  </g>
  <g>
    <path class="cls-4" d="M97.43,9.77c.35-.06.72-.03,1.07-.02,10.29,5.28,20.48,10.7,31.21,15.11,2.66,1.09,5.96,2.07,8.46,3.29.83.4,1.31,1.11,1.4,2.03.08,16.78,1.17,32.79-6.6,48.16-6.57,13-19.5,23.77-32.23,30.49-1.79.94-2.37,1.55-4.4.59-1.77-.84-3.83-2.18-5.53-3.23-19.92-12.29-32.31-27.12-34.25-51.3-.59-7.28-.57-15.64-.22-22.94.08-1.71-.36-3.03,1.55-3.88,3.06-1.36,6.58-2.45,9.75-3.77,9.94-4.15,18.71-9.14,28.26-13.85.42-.21,1.09-.62,1.52-.69ZM134.89,31.93c-12.79-4.71-24.91-10.92-36.92-17.29-11.96,6.58-24.24,12.57-37.04,17.37-.05,13.42-.95,27.25,4.22,39.9,5.71,13.97,15.76,22.71,28.32,30.42.62.38,4.21,2.62,4.59,2.61,11.54-6.54,22.75-14.54,29.44-26.3,5.37-9.44,7.08-18.95,7.4-29.72.15-5.1.45-11.13.12-16.18-.02-.28-.03-.54-.14-.8Z"/>
    <path class="cls-2" d="M97.54,23.62h.74c3.44,1.43,6.73,3.32,10.11,4.94,3.77,1.82,7.6,3.53,11.46,5.17,2.06.87,4.65,1.66,6.57,2.62.69.35,1.21.79,1.44,1.56.31,12.96.85,25.09-5.52,36.78-4.66,8.54-13.87,16.87-22.55,21.22-1.75.88-2.08.77-3.77-.11-16.02-8.32-28.08-23.89-28.04-42.55.32-4.77-.4-10.04,0-14.75.1-1.13.6-1.71,1.59-2.18,2-.95,4.41-1.7,6.5-2.59,7.31-3.09,14.38-6.6,21.47-10.11ZM97.87,28.49c-8.2,4.29-16.61,8.2-25.24,11.56l-.11.33c.12,7.38-.48,14.78,1.15,22.03,2.53,11.27,9.88,19.76,19.21,26.11.64.43,4.81,3.16,5.18,3.13,12.13-6.78,22.01-16.87,24.52-31.01,1.2-6.77.46-13.65.77-20.47-1.68-.85-3.53-1.47-5.28-2.21-6.73-2.83-13.32-5.97-19.76-9.39l-.44-.07Z"/>
    <path class="cls-2" d="M112.28,45.23c2.6-.44,4.39,2.03,3.11,4.33-.24.42-.7.91-1.03,1.3-4.99,5.98-10.58,12.19-15.85,17.95-1.64,1.8-3.45,4.17-6.09,2.1-1.35-1.05-3.28-3.42-4.55-4.76-1.88-2-3.71-4.05-5.55-6.09-1.58-3.5,2.16-6.06,4.94-3.28,2.19,2.19,4.26,4.64,6.43,6.87.79.81.5,1.22,1.49.17,5.38-5.7,10.26-12.1,15.64-17.83.31-.28,1.04-.69,1.46-.76Z"/>
  </g>
</svg>