<?xml version="1.0" encoding="UTF-8"?>
<svg id="Capa_1" data-name="Capa 1" xmlns="http://www.w3.org/2000/svg" viewBox="0 0 386.04 119.65">
  <defs>
    <style>
      .cls-1 {
        fill: #27292b;
      }

      .cls-2 {
        fill: #464545;
      }

      .cls-3 {
        fill: #4f8437;
      }

      .cls-4 {
        fill: #428635;
      }
    </style>
  </defs>
  <g>
    <path class="cls-2" d="M148.19,60.06c0-7.78,3.46-12.09,9.75-12.09s9.75,4.21,9.75,12.09-3.45,12.03-9.75,12.03-9.75-4.15-9.75-12.03ZM163.18,60.06c0-5.63-1.56-7.96-5.25-7.96s-5.25,2.43-5.25,7.96,1.57,7.84,5.25,7.84,5.25-2.38,5.25-7.84Z"/>
    <path class="cls-2" d="M171.53,70.39v-22.55c1.38-.38,2.97-.38,4.35,0v8c.86-1.12,2.52-2.1,4.71-2.1,4.17,0,6.64,3.17,6.64,8.8,0,6.07-3.04,9.55-8.33,9.55-2.67,0-5.35-.62-7.37-1.71ZM182.83,62.81c0-3.45-1.04-5-3.33-5-2.08,0-3.66,1.66-3.66,4.34v5.3c.82.39,1.95.59,3.16.59,2.64,0,3.83-1.61,3.83-5.22Z"/>
    <path class="cls-2" d="M190.66,56.1c2.41-1.51,5.01-2.37,7.27-2.37,1.34,0,2.58.26,3.52.71.08,1.51-.34,3.01-1.14,4.12-.61-.38-1.36-.59-2.08-.59-1.09,0-2.21.39-3.22,1.07v12.56c-1.38.38-2.97.38-4.35,0v-15.51Z"/>
    <path class="cls-2" d="M202.1,66.29c0-3.53,2.53-5.55,6.95-5.55,1.59,0,3.05.29,3.95.79l.02-.97c.04-1.93-1.19-2.89-3.64-2.89-1.52,0-3.1.38-4.35,1.05-.86-.83-1.32-2.06-1.28-3.37,1.65-1.01,3.81-1.59,5.92-1.59,4.83,0,7.5,2.23,7.5,7.9v8.74c-2.13,1.08-4.94,1.71-7.7,1.71-4.68,0-7.36-2.12-7.36-5.81ZM212.97,67.98v-3.18c-.82-.45-2.03-.71-3.26-.71-2.35,0-3.42.69-3.42,2.22s1.12,2.16,3.46,2.16c1.26,0,2.45-.18,3.21-.49Z"/>
    <path class="cls-3" d="M220.66,60.2c0-7.57,3.64-12.23,9.47-12.23,2.84,0,5.11,1.17,6.36,3.26-.29,1.38-1.25,2.45-2.57,2.96-.77-1.24-2.05-1.96-3.63-1.96-3.36,0-5.08,2.54-5.08,7.71s2.01,7.84,6.14,7.84c1.7,0,3.21-.34,4.41-.96.79.9,1.19,2.38,1.04,3.85-1.61.88-3.71,1.43-6.05,1.43-6.49,0-10.1-4.17-10.1-11.89Z"/>
    <path class="cls-3" d="M239.39,62.92c0-5.91,2.91-9.17,8.11-9.17s8.1,3.05,8.1,9.17-2.95,9.17-8.1,9.17c-5.45,0-8.11-3.04-8.11-9.17ZM251.2,62.92c0-3.72-1.07-5.21-3.7-5.21s-3.71,1.56-3.71,5.21,1.08,5.15,3.71,5.15,3.7-1.54,3.7-5.15Z"/>
    <path class="cls-3" d="M259.15,56.1c2.75-1.51,5.92-2.37,8.86-2.37,4.1,0,6.33,2.13,6.33,6.07v11.88c-1.38.38-2.97.38-4.35,0v-11.07c0-1.95-.86-2.8-2.7-2.8-1.25,0-2.63.29-3.79.89v12.98c-1.38.38-2.97.38-4.35,0v-15.58Z"/>
    <path class="cls-3" d="M288.19,70.4c-1.25,1.08-3.01,1.7-4.84,1.7-3.03,0-4.7-1.87-4.7-5.27v-13.83c1.08-1.66,2.66-3.01,4.35-3.71v4.8h4.49c.05,1.24-.22,2.57-.77,3.65h-3.72v8.14c0,1.65.53,2.39,1.74,2.39.86,0,1.7-.35,2.42-.79.69.61,1.11,1.76,1.02,2.92Z"/>
    <path class="cls-3" d="M291.16,56.1c2.41-1.51,5.01-2.37,7.27-2.37,1.34,0,2.58.26,3.52.71.08,1.51-.34,3.01-1.14,4.12-.61-.38-1.36-.59-2.08-.59-1.09,0-2.21.39-3.22,1.07v12.56c-1.38.38-2.97.38-4.35,0v-15.51Z"/>
    <path class="cls-3" d="M302.59,66.29c0-3.53,2.53-5.55,6.95-5.55,1.59,0,3.05.29,3.95.79l.02-.97c.04-1.93-1.19-2.89-3.64-2.89-1.52,0-3.1.38-4.35,1.05-.86-.83-1.32-2.06-1.28-3.37,1.65-1.01,3.81-1.59,5.92-1.59,4.83,0,7.5,2.23,7.5,7.9v8.74c-2.13,1.08-4.94,1.71-7.7,1.71-4.68,0-7.36-2.12-7.36-5.81ZM313.47,67.98v-3.18c-.82-.45-2.03-.71-3.26-.71-2.35,0-3.42.69-3.42,2.22s1.12,2.16,3.46,2.16c1.26,0,2.45-.18,3.21-.49Z"/>
    <path class="cls-3" d="M320.8,63.11c0-5.78,3.05-9.36,7.93-9.36,2.33,0,4.26.97,5.29,2.66-.29,1.22-1.07,2.25-2.09,2.81-.58-.89-1.57-1.39-2.73-1.39-2.73,0-3.96,1.58-3.96,5.1s1.45,5.1,4.66,5.1c1.38,0,2.68-.26,3.59-.75.64.88,1,2.16.97,3.51-1.58.83-3.49,1.31-5.56,1.31-5.14,0-8.09-3.27-8.09-8.99Z"/>
    <path class="cls-3" d="M346.76,70.4c-1.25,1.08-3.01,1.7-4.84,1.7-3.03,0-4.7-1.87-4.7-5.27v-13.83c1.08-1.66,2.66-3.01,4.35-3.71v4.8h4.49c.05,1.24-.22,2.57-.77,3.65h-3.72v8.14c0,1.65.53,2.39,1.74,2.39.86,0,1.7-.35,2.42-.79.69.61,1.11,1.76,1.02,2.92Z"/>
  </g>
  <g>
    <path class="cls-1" d="M114.33,57.03v-26.64h-12.75c-2.28,0-5.11-3.28-5.11-5.52v-12.44h-46.92c-1.55,0-3.54,2.05-3.46,3.66l.05,84.2c.57,2.31,2.2,3.08,4.44,3.2,6.66.37,13.65-.28,20.35,0,1.61.29,1.72,2.46.23,3.02-7.25.19-14.54.02-21.81.08-3.5-.33-6.33-3.13-6.56-6.66V15.89c.31-3.71,3.38-6.51,7.07-6.66h48.12c.87.08,1.66.32,2.35.85l16.49,16.45c.51.58.81,1.28.83,2.06v26.54s-.28.35-.28.35l-3.03,1.56ZM112.99,27.3l-13.22-13.22v11c0,.96,1.61,2.22,2.53,2.22h10.69Z"/>
    <path class="cls-4" d="M67.66,83.67c2.96-5.83,6.29-11.49,9.27-17.31.44-.67.85-.78,1.63-.76,1.08.02,2.3.28,3.4.32,2.09.07,4.19-.44,6.25,0-1.63,1.95-3.45,3.76-5.06,5.73-.8.99-2.94,3.47-2.77,4.72.07.51.6,1.21,1.01,1.52-.39-1.42.49-2.74,1.26-3.85,1.74-2.5,6.7-8.19,9.31-9.48,4.95-2.45,8.65.65,13.43.95,1,.06,2.41.06,3.42,0,1.13-.07,2.31-.66,3.22.23l9.79,18.24c.41,1.94-2.35,3.79-3.46,5.07-.08-.11-.91-1-.98-1.04-.72-.41-1.92.15-1.81,1.04-1.29-1.03-2.57-2.08-3.82-3.15-3.78-3.23-7.76-7.16-11.67-10.11-2.41-1.81-4.98-2.28-7.77-.97-2.96,1.38-5.48,4.92-9,4.63-2.76-.23-5.9-1.57-8.6-2.25-.35-.09-.82.07-1.04.35-1.13,2.07-2.26,4.14-3.4,6.2-.17.31-.38.73-.64.96-.5-.66-1-1.43-1.96-1.03Z"/>
    <path class="cls-1" d="M69.62,84.7c.06.08.11.29.22.45.74.99,1.45,1.99,2.21,2.96,2.46-2.07,6.38-.72,6.86,2.48,2.7-1.11,5.99.81,5.88,3.82,2.58-.05,4.67,1.93,4.59,4.55,2.28.28,4.19,2.34,3.97,4.68-.04.4-.39,1.19-.2,1.46,2.03,1.3,3.68,4.03,6.41,2.78,1.17-.53,1.92-2.13,1.04-3.2l-6.15-5c-.73-1.01.33-2.15,1.46-1.66l6.7,5.48c2.07,1.56,5.04-.88,3.51-3.1l-8.21-6.76c-.7-.99.3-2.38,1.44-1.75,3.01,2.45,5.92,5.06,9.02,7.39,2.34,1,4.46-1.99,2.75-3.88l-9.39-7.75c-.7-1,.3-2.38,1.44-1.75l10.03,8.35c2.25,1.42,4.84-.89,3.73-3.32-.29-.64-1.28-1.22-1.36-1.89-.1-.89,1.1-1.45,1.81-1.04.07.04.9.93.98,1.04,2.58,3.54-.03,8.44-4.44,7.74.16,2.89-2.4,5.23-5.27,4.85.12,2.89-2.69,5-5.46,4.45-.37,2.81-2.76,4.5-5.53,4.32-2.49-.16-4.04-2.33-5.99-3.59-.83.77-1.36,1.57-2.51,1.91-2.59.77-5.21-.66-5.6-3.37-2.49.55-4.91-1.05-5.16-3.61-2.6.18-4.94-1.75-4.74-4.44-3.3.13-5.62-3.42-4.05-6.37.15-.28.85-.99.85-1.12,0-.45-3-3.98-3.33-4.73-.22-.43.11-1.24.54-1.42.96-.4,1.46.37,1.96,1.03ZM74.35,89.37c-.23.04-.67.23-.85.39-.37.32-1.88,2-2.04,2.4-.81,2.02,1.49,3.78,3.23,2.5.19-.14,1.72-1.75,1.87-1.95,1.12-1.62-.24-3.66-2.2-3.33ZM80.44,92.47c-1.03.11-2.69,2.04-3.44,2.87-.24.27-.97,1.04-1.07,1.3-.8,1.99,1.53,3.82,3.18,2.46.68-.56,2.37-2.33,2.95-3.04.13-.16.41-.49.49-.65.66-1.45-.56-3.1-2.11-2.94ZM84.88,96.59c-.22.03-.93.31-1.1.45-.4.33-2.83,2.83-3.02,3.17-1.06,1.87,1.09,3.88,2.85,2.85.25-.15,3.16-3.05,3.31-3.3.85-1.43-.46-3.37-2.03-3.17ZM86.08,103.42c-1.32,1.72.35,3.89,2.36,3.24.49-.16,1.97-1.58,2.3-2.03,1.47-2-.88-4.42-2.83-3.04-.38.26-1.54,1.46-1.83,1.83Z"/>
    <path class="cls-4" d="M119.67,57.88c.68-.1,1.39.32,1.76.87l10.67,20.21c.09.76-.09,1.43-.64,1.97l-5.85,3.13c-.68.14-1.48-.2-1.87-.77-3.19-6.51-7.23-12.74-10.4-19.24-.57-1.16-.92-1.87.16-2.94,1.62-.77,3.14-1.78,4.74-2.59.37-.18,1.05-.59,1.42-.65Z"/>
    <path class="cls-4" d="M69.08,58.09c.45-.05.6.04.99.2,1.81.73,3.7,2.24,5.53,3.04,1.24,1.05.83,1.79.23,3.01-3.18,6.43-7.13,12.64-10.36,19.07-.65.89-1.4.96-2.36.54-1.8-.8-3.62-2.18-5.42-3.05-.53-.58-.67-1.21-.54-1.99l10.73-20.14c.25-.35.78-.61,1.2-.66Z"/>
    <path class="cls-1" d="M58.14,49.31l43.45-.03c2.11.19,1.95,2.95-.1,3h-42.85c-1.86-.03-2.24-2.37-.49-2.97Z"/>
    <path class="cls-1" d="M58.14,38.37l43.55-.03c1.66.09,1.95,2.33.34,2.82-14.63.12-29.31.12-43.94,0-1.44-.37-1.43-2.54.06-2.8Z"/>
    <path class="cls-1" d="M58.14,27.32l23.21-.02c1.72.28,1.74,2.6,0,2.89h-23.13c-1.55-.3-1.63-2.47-.08-2.87Z"/>
  </g>
</svg>