<?xml version="1.0" encoding="UTF-8"?>
<svg id="Capa_1" data-name="Capa 1" xmlns="http://www.w3.org/2000/svg" viewBox="0 0 386.04 119.65">
  <defs>
    <style>
      .cls-1 {
        fill: #464545;
      }

      .cls-2 {
        fill: #4f8437;
      }

      .cls-3 {
        fill: #26282a;
      }

      .cls-4 {
        fill: #387e33;
      }
    </style>
  </defs>
  <g>
    <path class="cls-1" d="M137.23,60.06c0-7.78,3.46-12.09,9.75-12.09s9.75,4.21,9.75,12.09-3.45,12.03-9.75,12.03-9.75-4.15-9.75-12.03ZM152.23,60.06c0-5.64-1.56-7.96-5.25-7.96s-5.25,2.43-5.25,7.96,1.57,7.84,5.25,7.84,5.25-2.38,5.25-7.84Z"/>
    <path class="cls-1" d="M167.94,72.09c-2.67,0-5.35-.62-7.37-1.71v-22.55c1.38-.38,2.97-.38,4.35,0v8c.86-1.12,2.52-2.1,4.71-2.1,4.17,0,6.64,3.17,6.64,8.8,0,6.07-3.04,9.55-8.33,9.55h0ZM171.87,62.81c0-3.46-1.04-5-3.33-5-2.08,0-3.66,1.66-3.66,4.33v5.3c.82.39,1.95.59,3.16.59,2.64,0,3.83-1.61,3.83-5.22Z"/>
    <path class="cls-1" d="M179.7,56.1c2.41-1.51,5.01-2.37,7.27-2.37,1.34,0,2.58.26,3.52.71.08,1.51-.34,3.01-1.14,4.12-.61-.38-1.36-.59-2.08-.59-1.09,0-2.21.39-3.22,1.07v12.56c-1.38.38-2.97.38-4.35,0v-15.51Z"/>
    <path class="cls-1" d="M191.14,66.29c0-3.53,2.53-5.55,6.95-5.55,1.59,0,3.05.29,3.95.79l.02-.97c.04-1.93-1.19-2.89-3.64-2.89-1.52,0-3.1.38-4.35,1.05-.86-.83-1.32-2.06-1.28-3.37,1.65-1.01,3.81-1.59,5.92-1.59,4.83,0,7.5,2.23,7.5,7.9v8.74c-2.13,1.08-4.94,1.71-7.7,1.71-4.68,0-7.36-2.12-7.36-5.81ZM202.01,67.98v-3.18c-.82-.45-2.03-.71-3.26-.71-2.35,0-3.42.69-3.42,2.22s1.12,2.17,3.46,2.17c1.26,0,2.45-.18,3.21-.49Z"/>
    <path class="cls-2" d="M209.7,60.2c0-7.57,3.64-12.23,9.47-12.23,2.84,0,5.11,1.17,6.36,3.26-.29,1.38-1.25,2.46-2.57,2.96-.77-1.24-2.05-1.96-3.63-1.96-3.36,0-5.08,2.55-5.08,7.7s2.01,7.84,6.14,7.84c1.7,0,3.21-.34,4.41-.96.79.9,1.19,2.38,1.04,3.85-1.61.88-3.71,1.43-6.05,1.43-6.49,0-10.1-4.17-10.1-11.89Z"/>
    <path class="cls-2" d="M228.44,62.92c0-5.91,2.91-9.18,8.11-9.18s8.1,3.05,8.1,9.18-2.95,9.17-8.1,9.17c-5.45,0-8.11-3.04-8.11-9.17ZM240.25,62.92c0-3.72-1.07-5.21-3.7-5.21s-3.71,1.56-3.71,5.21,1.08,5.15,3.71,5.15,3.7-1.54,3.7-5.15Z"/>
    <path class="cls-2" d="M248.2,56.1c2.75-1.51,5.92-2.37,8.86-2.37,4.1,0,6.33,2.13,6.33,6.07v11.88c-1.38.38-2.97.38-4.35,0v-11.07c0-1.95-.86-2.8-2.7-2.8-1.25,0-2.63.29-3.79.89v12.98c-1.38.38-2.97.38-4.35,0v-15.58Z"/>
    <path class="cls-2" d="M277.23,70.4c-1.25,1.08-3.01,1.7-4.84,1.7-3.03,0-4.7-1.87-4.7-5.27v-13.83c1.08-1.66,2.66-3.01,4.35-3.71v4.8h4.49c.05,1.24-.22,2.57-.77,3.65h-3.72v8.14c0,1.65.53,2.39,1.74,2.39.86,0,1.7-.35,2.42-.79.69.61,1.11,1.76,1.02,2.92Z"/>
    <path class="cls-2" d="M280.2,56.1c2.41-1.51,5.01-2.37,7.27-2.37,1.34,0,2.58.26,3.52.71.08,1.51-.34,3.01-1.14,4.12-.61-.38-1.36-.59-2.08-.59-1.09,0-2.21.39-3.22,1.07v12.56c-1.38.38-2.97.38-4.35,0v-15.51Z"/>
    <path class="cls-2" d="M292.38,62.92c0-5.91,2.91-9.18,8.11-9.18s8.1,3.05,8.1,9.18-2.95,9.17-8.1,9.17c-5.45,0-8.11-3.04-8.11-9.17ZM304.19,62.92c0-3.72-1.07-5.21-3.7-5.21s-3.71,1.56-3.71,5.21,1.08,5.15,3.71,5.15,3.7-1.54,3.7-5.15Z"/>
    <path class="cls-2" d="M312.21,67.42v-19.59c1.38-.38,2.97-.38,4.35,0v18.53c0,1.34.39,1.9,1.34,1.9.6,0,1.2-.27,1.73-.71.72.64,1.08,1.69,1,2.89-.96,1.04-2.44,1.64-4.06,1.64-2.92,0-4.36-1.55-4.36-4.67Z"/>
  </g>
  <g>
    <path class="cls-3" d="M59.69,19.3c.15-1.06,1.17-1.94,2.19-2.1,1.91-.3,4.32.13,6.28-.05-.01-4.65,4.3-7.98,8.81-7.19,3.38.59,6.12,3.71,6.04,7.19,1.96.18,4.38-.26,6.28.05.81.13,2.19,1.12,2.19,1.99v1.83h13.66c2.41.12,5.26,2.47,5.57,4.89.02.19-.11.36-.09.48.02.11.22.05.22.06v41.85l-4.4-1.53V27.14c-.09-1.05-.79-1.72-1.83-1.83h-13.13s0,1.83,0,1.83c0,.14-.33.87-.44,1.03-.5.76-1.37.95-2.23,1.02h-26.79c-.85-.13-1.61-.42-2.04-1.2-.05-.1-.31-.7-.31-.74v-1.94h-13.55c-.92.09-1.47.59-1.83,1.42l.02,74.88c.22.59.83,1.25,1.49,1.33h35.67c.15,0,.22.11.32.2.44.4,1.14,1.58,1.62,2.15.55.64,1.13,1.15,1.72,1.73.1.1.2.14.16.31h-39.91c-2.47,0-5.4-3.13-5.49-5.6V27.04c.18-3.23,2.46-5.68,5.7-6.01h14.07c.05-.54-.07-1.2,0-1.72ZM75.25,14.15c-2.27.28-3.46,2.85-2.21,4.78,1.8,2.78,5.88,1.17,5.59-2.03-.15-1.61-1.76-2.94-3.37-2.75Z"/>
    <path class="cls-4" d="M99.84,69.7c17.31-1.15,27.66,18.85,17.01,32.49-9.13,11.69-27.54,9.51-33.75-3.89-5.93-12.8,2.66-27.66,16.74-28.6ZM110.1,80.69c-.47.04-.97.25-1.34.55l-11.05,11.24c-.19.04-.41-.42-.56-.57-.92-.97-2.95-3.24-3.93-3.92-2.25-1.57-5.13,1.24-3.09,3.72,1.76,2.14,4.32,4.16,6.18,6.27.7.5,1.77.52,2.51.12.88-.48,3.4-3.3,4.29-4.19,3.12-3.14,6.19-6.39,9.25-9.58.92-1.69-.33-3.8-2.26-3.63Z"/>
    <path class="cls-3" d="M72.95,59.97l23.84-.03c1.28.17,1.45,2.43-.11,2.62h-23.44c-1.38-.15-1.52-2.13-.29-2.6Z"/>
    <path class="cls-3" d="M73.05,43.65l23.62-.02c1.32.16,1.52,1.92.44,2.54-7.94.19-15.92.02-23.88.08-1.44-.17-1.44-2.13-.18-2.6Z"/>
    <path class="cls-3" d="M64.79,70.85c1.37-.31,2.3.84,1.8,2.11-2.71,2.96-5.56,5.81-8.32,8.73-.61.32-1.02.31-1.6-.04-.76-.46-3.14-2.76-3.82-3.5-1.15-1.22-.02-3.06,1.57-2.51.61.21,2.8,2.65,3.01,2.61.59-.56,1.18-1.13,1.74-1.72.92-.95,1.79-1.99,2.71-2.93.43-.44,2.55-2.67,2.9-2.75Z"/>
    <path class="cls-3" d="M65.21,38.52c1.25-.17,1.97,1.15,1.48,2.22l-8.05,8.27c-.55.46-1.38.54-1.97.11-.89-1.19-3.41-2.69-4.07-3.88-.56-1,.24-2.34,1.39-2.23,1.12.11,2.6,2.2,3.57,2.82l6.75-6.85c.23-.19.63-.41.92-.45Z"/>
    <path class="cls-3" d="M64.79,54.63c1.52-.35,2.34.92,1.75,2.27l-8.21,8.53c-.52.26-1.18.26-1.66-.1l-4-3.74c-.9-1.35.69-2.95,2.06-2.06.43.28,2.67,2.56,2.88,2.47l6.85-7.17c.1-.09.21-.16.34-.19Z"/>
    <path class="cls-3" d="M72.49,78.53c-.71-.71-.37-2.16.67-2.35.75-.14,3.89-.13,4.67-.02,1.5.21,1.42,2.41.2,2.69-.61.14-4.08.11-4.79.03-.25-.03-.58-.18-.75-.35Z"/>
  </g>
</svg>