<svg xmlns="http://www.w3.org/2000/svg" width="1200" height="420" viewBox="0 0 1200 420" role="img" aria-label="ObraLift logo">
<g transform="translate(58,80) scale(1.35)" stroke-linecap="round" stroke-linejoin="round">
<path d="M38 144 L38 60 L118 12 L198 60" fill="none" stroke="#4A4A4A" stroke-width="10"/>
<path d="M38 144 L118 194 L198 144" fill="none" stroke="#5C8E3E" stroke-width="10"/>
<path d="M78 148 L78 92 L104 72 L104 148 Z" fill="#4A4A4A"/>
<path d="M112 148 L112 54 L138 70 L138 148 Z" fill="#4A4A4A"/>
<path d="M148 148 L148 92 L174 78 L174 148 Z" fill="#4A4A4A"/>
<rect x="204" y="78" width="18" height="104" rx="1" fill="#5C8E3E"/>
<path d="M205 94 L222 112 M222 94 L205 112 M205 118 L222 136 M222 118 L205 136 M205 142 L222 160 M222 142 L205 160" stroke="#FFFFFF" stroke-width="3" opacity="0.86"/>
<rect x="191" y="177" width="44" height="16" rx="2" fill="#5C8E3E"/>
<rect x="186" y="66" width="38" height="22" rx="2" fill="#5C8E3E"/>
<circle cx="222" cy="32" r="8" fill="#5C8E3E"/>
<path d="M222 32 L204 78 M222 32 L316 70" stroke="#5C8E3E" stroke-width="4" fill="none"/>
<path d="M220 70 L378 70 L388 82 L220 82 Z" fill="none" stroke="#5C8E3E" stroke-width="5"/>
<path d="M232 72 L248 81" stroke="#5C8E3E" stroke-width="3"/>
<path d="M250 72 L266 81" stroke="#5C8E3E" stroke-width="3"/>
<path d="M268 72 L284 81" stroke="#5C8E3E" stroke-width="3"/>
<path d="M286 72 L302 81" stroke="#5C8E3E" stroke-width="3"/>
<path d="M304 72 L320 81" stroke="#5C8E3E" stroke-width="3"/>
<path d="M322 72 L338 81" stroke="#5C8E3E" stroke-width="3"/>
<path d="M340 72 L356 81" stroke="#5C8E3E" stroke-width="3"/>
<path d="M358 72 L374 81" stroke="#5C8E3E" stroke-width="3"/>
<rect x="334" y="76" width="18" height="8" rx="1" fill="#5C8E3E"/>
<path d="M343 84 L343 116" stroke="#5C8E3E" stroke-width="4"/>
<path d="M337 116 C337 128 351 128 351 117 C351 112 347 109 343 109" fill="none" stroke="#5C8E3E" stroke-width="5"/>
<path d="M334 138 L352 138 L360 152 L326 152 Z" fill="#5C8E3E"/>
</g><g font-family="Montserrat, Manrope, Inter, Arial, sans-serif" font-weight="800" font-size="106">
    <text x="560" y="260" fill="#4A4A4A">Obra</text>
    <text x="859.98" y="260" fill="#5C8E3E">Lift</text>
</g><text x="564" y="314" font-family="Montserrat,Arial,sans-serif" font-size="24" font-weight="600" letter-spacing="4" fill="#5C8E3E">MÓDULO DE OBRASUITE</text>
</svg>