<?xml version="1.0" encoding="UTF-8"?>
<svg id="Capa_1" data-name="Capa 1" xmlns="http://www.w3.org/2000/svg" viewBox="0 0 386.04 119.65">
  <defs>
    <style>
      .cls-1 {
        fill: #464545;
      }

      .cls-2 {
        fill: #2d7734;
      }

      .cls-3 {
        fill: #3a3d3f;
      }

      .cls-4 {
        fill: #4f8437;
      }
    </style>
  </defs>
  <g>
    <path class="cls-1" d="M181.6,62.14c0-7.78,3.46-12.09,9.75-12.09s9.75,4.21,9.75,12.09-3.45,12.03-9.75,12.03-9.75-4.15-9.75-12.03ZM196.6,62.14c0-5.64-1.56-7.96-5.25-7.96s-5.25,2.43-5.25,7.96,1.57,7.84,5.25,7.84,5.25-2.38,5.25-7.84Z"/>
    <path class="cls-1" d="M212.31,74.18c-2.67,0-5.35-.62-7.37-1.71v-22.55c1.38-.38,2.97-.38,4.35,0v8c.86-1.12,2.52-2.1,4.71-2.1,4.17,0,6.64,3.17,6.64,8.8,0,6.07-3.04,9.55-8.33,9.55h0ZM216.24,64.89c0-3.46-1.04-5-3.33-5-2.08,0-3.66,1.66-3.66,4.33v5.3c.82.39,1.95.59,3.16.59,2.64,0,3.83-1.61,3.83-5.22Z"/>
    <path class="cls-1" d="M224.07,58.18c2.41-1.51,5.01-2.37,7.27-2.37,1.34,0,2.58.26,3.52.71.08,1.51-.34,3.01-1.14,4.12-.61-.38-1.36-.59-2.08-.59-1.09,0-2.21.39-3.22,1.07v12.56c-1.38.38-2.97.38-4.35,0v-15.51Z"/>
    <path class="cls-1" d="M235.51,68.37c0-3.53,2.53-5.55,6.95-5.55,1.59,0,3.05.29,3.95.79l.02-.97c.04-1.93-1.19-2.89-3.64-2.89-1.52,0-3.1.38-4.35,1.05-.86-.83-1.32-2.06-1.28-3.37,1.65-1.01,3.81-1.59,5.92-1.59,4.83,0,7.5,2.23,7.5,7.9v8.74c-2.13,1.08-4.94,1.71-7.7,1.71-4.68,0-7.36-2.12-7.36-5.81ZM246.38,70.06v-3.18c-.82-.45-2.03-.71-3.26-.71-2.35,0-3.42.69-3.42,2.22s1.12,2.17,3.46,2.17c1.26,0,2.45-.18,3.21-.49Z"/>
    <path class="cls-4" d="M254.82,73.15v-21.53c2.01-.97,4.56-1.57,7.16-1.57,4.97,0,7.93,2.28,7.93,6.28,0,2.61-1.1,4.53-3.02,5.27,2.47.65,4.04,2.82,4.04,5.63,0,4.35-3.45,6.95-9.4,6.95-2.37,0-4.79-.37-6.72-1.03ZM261.85,59.95c2.6,0,3.96-1.03,3.96-3.14,0-1.87-1.32-2.93-3.63-2.93-1.08,0-2.08.15-2.98.49v5.58h2.64ZM266.46,66.88c0-2.1-1.8-3.46-4.58-3.46h-2.68v6.54c.84.18,1.82.27,2.81.27,2.83,0,4.45-1.22,4.45-3.35Z"/>
    <path class="cls-4" d="M273.65,65c0-5.91,2.91-9.18,8.11-9.18s8.1,3.05,8.1,9.18-2.95,9.17-8.1,9.17c-5.45,0-8.11-3.04-8.11-9.17ZM285.46,65c0-3.72-1.07-5.21-3.7-5.21s-3.71,1.56-3.71,5.21,1.08,5.15,3.71,5.15,3.7-1.54,3.7-5.15Z"/>
    <path class="cls-4" d="M292.21,68.37c0-3.53,2.53-5.55,6.95-5.55,1.59,0,3.05.29,3.95.79l.02-.97c.04-1.93-1.19-2.89-3.64-2.89-1.52,0-3.1.38-4.35,1.05-.86-.83-1.32-2.06-1.28-3.37,1.65-1.01,3.81-1.59,5.92-1.59,4.83,0,7.5,2.23,7.5,7.9v8.74c-2.13,1.08-4.94,1.71-7.7,1.71-4.68,0-7.36-2.12-7.36-5.81ZM303.09,70.06v-3.18c-.82-.45-2.03-.71-3.26-.71-2.35,0-3.42.69-3.42,2.22s1.12,2.17,3.46,2.17c1.26,0,2.45-.18,3.21-.49Z"/>
    <path class="cls-4" d="M311.29,58.18c2.41-1.51,5.01-2.37,7.27-2.37,1.34,0,2.58.26,3.52.71.08,1.51-.34,3.01-1.14,4.12-.61-.38-1.36-.59-2.08-.59-1.09,0-2.21.39-3.22,1.07v12.56c-1.38.38-2.97.38-4.35,0v-15.51Z"/>
    <path class="cls-4" d="M323.46,65.08c0-5.88,2.58-9.25,7.08-9.25,1.54,0,3.09.52,4.27,1.42v-7.33c1.38-.39,2.97-.39,4.35,0v22.55c-2.04,1.08-4.76,1.71-7.45,1.71-5.51,0-8.25-3.02-8.25-9.1ZM334.85,69.55v-8.07c-.75-.97-2.04-1.6-3.27-1.6-2.56,0-3.72,1.6-3.72,5.19s1.24,5.03,3.98,5.03c1.12,0,2.22-.2,3.01-.55Z"/>
  </g>
  <g>
    <path class="cls-3" d="M157.67,20.52c.3.18,1.11.2,1.71.39,3.7,1.15,6.11,4.49,6.49,8.29v65.51c-.29,4.34-3.45,7.9-7.68,8.78-26.48.41-53.02.05-79.52.18-4.64-.25-8.63-3.95-9.07-8.6V28.95c.39-4.44,4.07-8.03,8.47-8.47l79.61.04ZM162.51,35.63v-6.67c0-2.27-3.17-5.22-5.47-5.23h-78.37c-2.93.17-5.82,2.84-5.82,5.83v6.07h89.67ZM162.51,38.87h-89.67v55.47c0,2.86,2.77,5.71,5.58,5.95h78.73c2.19-.12,5.35-3.05,5.35-5.23v-56.19Z"/>
    <path class="cls-3" d="M96.64,53.06v19.83h19.65c.09,0,.13.14.13.25,0,.6-.13,1.45-.23,2.06-1.75,10.94-12.87,18.31-23.67,15.33-13.11-3.63-18.3-19.59-9.83-30.31,3.37-4.27,8.47-6.89,13.94-7.16Z"/>
    <path class="cls-2" d="M155.42,89.48h1.32v2.28h-38.82v-2.28h2.52v-9.32c0-.37.42-.97.73-1.19.88-.63,3.91-.68,4.73.06.16.14.67.96.67,1.13v9.32h3.37v-22.78c0-.68.67-1.66,1.32-1.92.73-.29,2.99-.28,3.72,0,.38.15,1.2.97,1.2,1.32v23.38h3.37v-16.65c0-.6.57-1.5,1.15-1.73.53-.21,2.71-.2,3.35-.13.81.09,1.74.93,1.74,1.74v16.77h3.37v-23.38c0-.5.66-1.41,1.12-1.65.82-.42,3.8-.38,4.54.32.11.11.6.9.6.97v23.74Z"/>
    <path class="cls-2" d="M117.79,69.88h-18.15v-18.75c9.92-.06,18.19,9.01,18.15,18.75Z"/>
    <path class="cls-2" d="M142.55,53.3v3.25h-24.22s-.18-.17-.18-.18v-3.07h24.4Z"/>
    <rect class="cls-2" x="118.27" y="46.21" width="24.28" height="3.25"/>
    <path class="cls-2" d="M156.02,56.54h-10.1v-3.19s.17-.18.18-.18h9.74s.18.17.18.18v3.19Z"/>
    <path class="cls-2" d="M156.02,46.21c.06.04-.12.15-.12.18v3.07h-9.8s-.18-.17-.18-.18v-3.07h10.1Z"/>
    <path class="cls-2" d="M80.63,27.72c2.86-.28,3.13,4.15.32,4.31-2.64.14-2.96-4.04-.32-4.31Z"/>
    <path class="cls-2" d="M94.44,27.84c3.66-.68,3.39,4.86,0,4.02-2.09-.52-1.96-3.66,0-4.02Z"/>
    <path class="cls-2" d="M87.35,27.84c3.36-.7,3.47,4.2.57,4.16-2.51-.03-2.77-3.7-.57-4.16Z"/>
  </g>
</svg>