<?xml version="1.0" encoding="UTF-8"?>
<svg id="Capa_1" data-name="Capa 1" xmlns="http://www.w3.org/2000/svg" viewBox="0 0 386.04 119.65">
  <defs>
    <style>
      .cls-1 {
        fill: #567d40;
      }

      .cls-2 {
        fill: #4a494a;
      }

      .cls-3 {
        fill: #464545;
      }

      .cls-4 {
        fill: #4f8437;
      }
    </style>
  </defs>
  <g>
    <path class="cls-3" d="M172.55,60.06c0-7.78,3.46-12.09,9.75-12.09s9.75,4.21,9.75,12.09-3.45,12.03-9.75,12.03-9.75-4.15-9.75-12.03ZM187.55,60.06c0-5.64-1.56-7.96-5.25-7.96s-5.25,2.43-5.25,7.96,1.57,7.84,5.25,7.84,5.25-2.38,5.25-7.84Z"/>
    <path class="cls-3" d="M203.26,72.09c-2.66,0-5.35-.62-7.37-1.71v-22.55c1.38-.38,2.97-.38,4.35,0v8c.86-1.12,2.52-2.1,4.71-2.1,4.17,0,6.64,3.17,6.64,8.8,0,6.07-3.04,9.55-8.33,9.55h0ZM207.2,62.81c0-3.46-1.04-5-3.33-5-2.08,0-3.66,1.66-3.66,4.33v5.3c.82.39,1.95.59,3.16.59,2.64,0,3.83-1.61,3.83-5.22Z"/>
    <path class="cls-3" d="M215.03,56.1c2.41-1.51,5.01-2.37,7.27-2.37,1.34,0,2.58.26,3.52.71.08,1.51-.34,3.01-1.14,4.12-.61-.38-1.36-.59-2.08-.59-1.09,0-2.21.39-3.22,1.07v12.56c-1.38.38-2.97.38-4.35,0v-15.51Z"/>
    <path class="cls-3" d="M226.46,66.29c0-3.53,2.53-5.55,6.95-5.55,1.59,0,3.05.29,3.95.79l.02-.97c.04-1.93-1.19-2.89-3.64-2.89-1.52,0-3.1.38-4.35,1.05-.86-.83-1.32-2.06-1.28-3.37,1.65-1.01,3.81-1.59,5.92-1.59,4.83,0,7.5,2.23,7.5,7.9v8.74c-2.13,1.09-4.94,1.71-7.7,1.71-4.68,0-7.36-2.12-7.36-5.81ZM237.34,67.98v-3.18c-.82-.45-2.03-.71-3.26-.71-2.35,0-3.42.69-3.42,2.22s1.12,2.17,3.46,2.17c1.26,0,2.45-.18,3.21-.49Z"/>
    <path class="cls-4" d="M245.77,71.07v-21.53c2.01-1,4.59-1.57,7.09-1.57,6.82,0,10.66,4.32,10.66,12.06s-3.88,12.06-10.66,12.06c-2.45,0-5.03-.37-7.09-1.03ZM259,60.03c0-5.29-1.91-7.91-5.78-7.91-1.18,0-2.27.18-3.06.51v14.96c.8.19,1.87.29,3.02.29,3.89,0,5.82-2.6,5.82-7.85Z"/>
    <path class="cls-4" d="M266.61,62.92c0-5.91,2.91-9.18,8.11-9.18s8.1,3.05,8.1,9.18-2.95,9.17-8.1,9.17c-5.45,0-8.11-3.04-8.11-9.17ZM278.42,62.92c0-3.72-1.07-5.21-3.7-5.21s-3.71,1.56-3.71,5.21,1.08,5.15,3.71,5.15,3.7-1.54,3.7-5.15Z"/>
    <path class="cls-4" d="M285.81,63.11c0-5.78,3.05-9.37,7.93-9.37,2.33,0,4.26.97,5.29,2.66-.29,1.22-1.07,2.25-2.09,2.81-.58-.89-1.57-1.39-2.73-1.39-2.73,0-3.96,1.58-3.96,5.1s1.45,5.1,4.66,5.1c1.38,0,2.68-.26,3.59-.74.64.88,1,2.16.97,3.51-1.58.83-3.49,1.31-5.56,1.31-5.14,0-8.09-3.27-8.09-8.99Z"/>
    <path class="cls-4" d="M301.14,70.73c-.15-1.37.24-2.69,1.07-3.61,1.49.61,3.23.97,4.76.97,1.87,0,2.98-.6,2.98-1.59,0-2.46-8.09-1.83-8.09-7.56,0-3.19,2.54-5.21,6.23-5.21,2.41,0,4.55.91,5.76,2.49-.26,1.26-1.12,2.23-2.36,2.65-.72-.82-1.88-1.29-3.11-1.29-1.38,0-2.2.5-2.2,1.32,0,2.46,8.21,1.45,8.21,7.7,0,3.39-2.71,5.5-6.87,5.5-2.26,0-4.59-.5-6.38-1.37Z"/>
  </g>
  <g>
    <path class="cls-2" d="M96.26,24.27l57.67.17.73.46-.27,81.4-1.19.28-68.66-.02c-6.72-.97-12.13-6.36-12.88-13.15V24.45c1.88-15.1,22.22-15.18,24.61-.17ZM93.56,82.01V25.05c0-5.21-5.64-9.85-10.77-9.29-3.65.4-8.46,4.64-8.46,8.4v58.73c1.88-1.92,4.55-4.31,7.38-4.6.67-.07,1.31.29,1.89.17.25-.05.08-.63.62-.62,1.44.02,3.93.67,5.26,1.29l4.08,2.87ZM152.14,27.27h-55.92v64.06c0,2.24-3,5.8-4.94,6.9-8.85,5.01-16.62-5.85-10.16-11.34,1.28-1.09,5.48-2.51,5.6.01.07,1.58-1.78,1.18-2.85,1.56-4.19,1.49-2.25,9,3.54,8.28,9.06-1.13,7.11-14.94-1.69-15.9-11.4-1.25-15.28,13.73-6.8,20.41,1.16.91,4.52,2.67,5.91,2.67h67.31V27.27Z"/>
    <path class="cls-1" d="M114.27,50.5c2.06-1.52,4.15-3.96,6.23-5.31.37-.24.68-.53,1.17-.34,1.47,1.25,9.12,5.59,9.68,6.75.44.91-.27,4.28.13,4.91.33.53,8.8,3.89,9.72,5.22v16.12c0,.2,3.52-.8,2.66,1.78h-39.2c-.05,0-.69-.62-.71-.78-.09-.3.64-.99.71-.99h9.62v-27.37ZM122.26,47.39v30.03c0,1.26,3.11.56,3.24.43.29-.3-.28-6.59.07-7.77.44-1.47,3.88-1.13,4.1-3,.53-4.4-.38-9.93-.07-14.46-2.24-1.91-4.86-3.57-7.34-5.23ZM120.48,77.86v-30.18c-.77.61-4.44,3-4.44,3.7v26.48h4.44ZM139.42,77.86v-15.24c-2.56-1.39-5.27-3.11-7.99-3.99v19.23h7.99ZM129.65,69.87c-.32.34-2.37.47-2.37.59v7.69c.42-.34,2.37-.18,2.37-.3v-7.99Z"/>
    <path class="cls-1" d="M104.65,84.67h16.27c.67,0,1.08,2.07.3,2.07h-16.57c-.69,0-1.06-1.71,0-2.07Z"/>
    <path class="cls-1" d="M120.92,92.06c1.21.21.96,2.07,0,2.07h-16.27c-.63,0-.94-2.07,0-2.07h16.27Z"/>
    <path class="cls-1" d="M127.14,84.67h7.69c.67,0,1.08,2.07.3,2.07h-7.99c-.69,0-1.06-1.71,0-2.07Z"/>
    <path class="cls-1" d="M137.49,94.14c-1.3-.21-.7-2.07-.3-2.07h6.51c.72,0,.72,2.07,0,2.07-1.77,0-4.63.26-6.21,0Z"/>
    <path class="cls-1" d="M126.99,94.14c-.05-.02-.62-.96-.61-1.02.05-.32.57-1.05.76-1.05h5.92c.86,0,.86,2.07,0,2.07-1,0-5.62.19-6.07,0Z"/>
    <path class="cls-1" d="M141.1,84.73c1.27-.38,4.19-.08,2.92,1.74-.31.45-2.59.38-3.12.13-.88-.42-.72-1.58.21-1.86Z"/>
    <path class="cls-1" d="M136.16,70.91c-.21.75-1.47.49-1.71-.36-.18-.6-.17-3.7.09-4.23.4-.83,1.63-.65,1.63-.15,0,1.09.22,3.95,0,4.73Z"/>
  </g>
</svg>