<?xml version="1.0" encoding="UTF-8"?>
<svg xmlns="http://www.w3.org/2000/svg" width="1400" height="420" viewBox="0 0 1400 420">
  <title>ObraSuite Logo Family</title>
  <desc>Vector logo generated for ObraSuite branding. Primary charcoal #3A3E40.</desc>
  <defs>
    <style><![CDATA[
      .char { fill:#3A3E40; stroke:#3A3E40; }
      .line { fill:none; stroke:#3A3E40; stroke-width:12; stroke-linecap:round; stroke-linejoin:round; }
      .thin { fill:none; stroke:#3A3E40; stroke-width:9; stroke-linecap:round; stroke-linejoin:round; }
      .txt { font-family:'DejaVu Sans', 'Arial Rounded MT Bold', Arial, sans-serif; font-weight:700; font-size:120px; }
    ]]></style>
  </defs>
  <g transform="translate(62,70)">
    <rect x="0" y="5" width="120" height="170" rx="14" fill="none" stroke="#3A3E40" stroke-width="12"/>
    <rect x="22" y="28" width="76" height="28" rx="4" fill="#3A3E40"/>
    <rect x="22" y="75" width="20" height="20" rx="4" fill="#3A3E40"/><rect x="52" y="75" width="20" height="20" rx="4" fill="#3A3E40"/><rect x="82" y="75" width="20" height="20" rx="4" fill="#3A3E40"/><rect x="22" y="103" width="20" height="20" rx="4" fill="#3A3E40"/><rect x="52" y="103" width="20" height="20" rx="4" fill="#3A3E40"/><rect x="82" y="103" width="20" height="20" rx="4" fill="#3A3E40"/><rect x="22" y="131" width="20" height="20" rx="4" fill="#3A3E40"/><rect x="52" y="131" width="20" height="20" rx="4" fill="#3A3E40"/><rect x="82" y="131" width="20" height="20" rx="4" fill="#3A3E40"/>
    <rect x="130" y="120" width="32" height="72" rx="4" fill="#4C9206"/>
    <rect x="172" y="82" width="32" height="110" rx="4" fill="#4C9206"/>
    <rect x="214" y="35" width="32" height="157" rx="4" fill="#4C9206"/>
  </g>
  <text class="txt" x="350" y="250"><tspan fill="#3A3E40">Obra</tspan><tspan fill="#4C9206">Cost</tspan></text>
  <!-- ObraCost | Primary Charcoal #3A3E40 | Accent #4C9206 | Presupuestos, itemizados y análisis de precios unitarios -->
</svg>
